<?xml version="1.0" standalone="no"?>
<!DOCTYPE svg PUBLIC "-//W3C//DTD SVG 20010904//EN"
 "http://www.w3.org/TR/2001/REC-SVG-20010904/DTD/svg10.dtd">
<svg version="1.0" xmlns="http://www.w3.org/2000/svg"
 width="822.000000pt" height="822.000000pt" viewBox="0 0 822.000000 822.000000"
 preserveAspectRatio="xMidYMid meet">
<metadata>
Created by potrace 1.11, written by Peter Selinger 2001-2013
</metadata>
<g transform="translate(0.000000,822.000000) scale(0.100000,-0.100000)"
fill="#000000" stroke="none">
<path d="M1347 7280 c-40 -12 -54 -26 -61 -60 -7 -39 8 -77 46 -117 37 -38 33
-58 -13 -58 -32 0 -34 -2 -34 -34 0 -29 5 -36 28 -44 72 -24 133 20 131 95 -1
30 -10 48 -45 85 l-44 48 38 3 c36 3 37 4 37 41 0 32 -4 40 -22 45 -27 7 -25
7 -61 -4z"/>
<path d="M1543 7280 l-23 -9 0 -314 c0 -230 3 -316 12 -325 15 -15 183 -16
244 -1 73 19 114 86 114 189 -1 64 -15 120 -39 143 -19 20 -19 20 2 49 18 25
22 43 22 108 0 87 -17 123 -70 149 -34 17 -231 25 -262 11z m188 -153 c16 -35
-4 -77 -36 -77 -23 0 -25 3 -25 50 0 47 2 50 25 50 17 0 29 -8 36 -23z m-3
-239 c20 -20 15 -92 -8 -113 -33 -30 -50 -13 -50 53 0 32 3 62 7 65 10 11 38
8 51 -5z"/>
<path d="M1955 7282 l-30 -7 -5 -315 c-4 -186 -2 -320 3 -327 14 -19 270 -18
286 1 7 9 11 40 9 78 l-3 63 -70 5 -70 5 -3 53 c-3 57 -6 55 70 52 56 -2 68
14 68 89 0 61 -17 74 -88 69 l-47 -3 -3 43 -3 42 60 0 c78 0 95 15 89 82 -3
27 -11 55 -17 61 -13 13 -197 20 -246 9z"/>
<path d="M2356 7274 c-19 -19 -18 -15 -56 -234 -16 -96 -39 -223 -51 -282 -12
-58 -19 -114 -16 -122 5 -12 21 -16 66 -16 83 0 90 4 97 60 5 41 10 49 31 55
34 8 50 -8 57 -59 4 -26 13 -47 22 -50 20 -8 98 -8 118 0 19 7 21 61 6 114 -6
19 -19 89 -30 155 -11 66 -32 178 -47 248 -31 146 -31 147 -128 147 -35 0 -59
-5 -69 -16z m99 -264 c20 -124 20 -120 -15 -120 -24 0 -30 4 -30 21 0 30 23
199 26 196 2 -2 10 -45 19 -97z"/>
<path d="M938 7273 c-2 -5 -3 -73 -3 -153 l0 -145 38 -3 37 -3 0 155 0 156
-34 0 c-19 0 -36 -3 -38 -7z"/>
<path d="M1020 7245 c0 -28 4 -35 20 -35 19 0 20 -7 20 -121 l0 -120 38 3 37
3 3 118 c2 109 4 117 22 117 16 0 20 7 20 35 l0 35 -80 0 -80 0 0 -35z"/>
<path d="M1197 7274 c-11 -11 -8 -62 3 -69 6 -4 8 -15 5 -26 -5 -14 -1 -19 14
-19 25 0 53 51 49 88 -2 22 -9 28 -33 30 -17 2 -34 0 -38 -4z"/>
<path d="M2604 7266 c-3 -7 -4 -40 -2 -72 l3 -59 40 -5 40 -5 5 -250 5 -250
64 -3 c36 -2 69 2 75 8 6 6 10 96 11 253 l0 242 42 3 42 3 6 53 c13 99 17 96
-166 96 -125 0 -161 -3 -165 -14z"/>
<path d="M6270 7205 c-387 -43 -764 -164 -995 -319 -120 -80 -215 -206 -215
-284 0 -40 22 -90 38 -85 6 3 12 -1 12 -9 1 -15 122 -110 130 -101 3 3 -1 8
-8 11 -8 2 -25 17 -39 33 -14 16 -30 26 -36 22 -6 -3 -7 -1 -4 4 4 6 -2 22
-13 36 -24 30 -24 34 -6 34 8 0 12 -6 9 -13 -3 -9 2 -12 17 -9 18 3 20 2 10
-10 -10 -12 -10 -18 0 -30 7 -8 15 -13 19 -11 3 2 25 -9 49 -25 23 -16 44 -29
46 -29 2 0 6 9 9 21 4 13 10 18 18 13 8 -4 10 -3 5 4 -5 8 -1 11 11 9 27 -3
28 16 1 33 -21 14 -22 14 -9 -3 21 -26 -3 -20 -29 8 -13 14 -28 25 -34 25 -6
0 4 -13 23 -29 28 -23 31 -29 17 -34 -10 -4 -15 -3 -11 3 7 12 -23 9 -45 -5
-9 -5 -8 0 4 13 24 27 13 42 -13 18 -19 -17 -19 -17 -17 1 2 10 -5 29 -15 42
-11 13 -19 31 -19 40 1 9 10 -1 21 -22 11 -22 22 -37 25 -35 2 3 -5 22 -16 43
-22 43 -25 81 -10 105 7 11 8 6 4 -16 -6 -32 30 -134 43 -121 3 4 0 13 -7 21
-16 20 -31 86 -19 86 5 0 9 -9 9 -21 0 -25 16 -57 43 -86 37 -41 39 -24 3 19
-28 32 -36 50 -35 77 l1 36 7 -35 c9 -45 19 -62 33 -54 7 5 8 2 4 -5 -11 -17
24 -53 43 -46 8 3 12 3 8 -1 -9 -9 12 -34 29 -34 7 0 25 -5 41 -11 15 -7 42
-13 58 -15 26 -4 30 -1 31 21 2 25 -19 35 -31 15 -9 -14 -22 -12 -28 4 -4 10
-1 13 9 9 25 -9 15 11 -15 32 -16 10 -29 24 -28 29 1 6 -10 11 -25 11 -14 0
-30 4 -34 8 -5 4 -2 5 7 2 10 -4 15 1 16 13 1 14 -5 18 -22 18 -13 -1 -27 -5
-31 -9 -4 -4 -12 -7 -18 -7 -8 0 -8 2 0 8 20 13 35 52 30 75 -3 12 3 5 13 -17
l19 -39 6 30 c4 16 2 41 -3 55 -7 20 -7 28 3 31 10 4 13 -1 10 -16 -3 -13 2
-8 11 12 20 43 28 36 13 -13 -18 -57 5 -111 67 -156 11 -8 3 4 -17 27 -39 44
-56 100 -40 129 9 16 10 15 16 -4 4 -12 4 -32 1 -43 -5 -15 -4 -19 4 -15 14 9
14 51 0 78 -8 15 -8 23 2 32 9 8 10 8 5 -1 -4 -7 0 -23 9 -37 10 -15 14 -35
10 -52 -5 -27 -4 -26 11 6 11 23 12 36 5 38 -6 2 -11 10 -11 18 0 8 6 11 15 8
9 -4 15 -19 15 -36 0 -16 -7 -36 -15 -44 -8 -9 -15 -21 -15 -27 1 -7 10 -1 22
13 14 17 19 19 15 7 -5 -13 -3 -16 6 -11 6 4 -1 -7 -17 -24 -28 -30 -28 -31
-8 -43 11 -7 18 -18 15 -25 -2 -6 -1 -14 4 -17 5 -3 10 3 11 14 4 42 6 48 13
43 5 -2 6 -11 2 -19 -4 -12 0 -13 18 -6 24 8 33 35 14 37 -20 2 -45 16 -45 27
0 5 10 2 23 -9 20 -17 20 -17 -2 8 -14 16 -27 47 -31 75 -7 45 -6 48 36 92 24
25 46 42 50 39 3 -4 -6 -14 -20 -23 -14 -10 -26 -21 -26 -26 0 -19 42 -1 66
27 l24 29 -25 -45 c-14 -25 -25 -55 -25 -68 0 -28 25 -78 45 -89 12 -7 11 -11
-8 -22 -19 -13 -21 -12 -10 1 11 12 10 18 -5 32 -23 20 -37 10 -16 -11 8 -9
13 -18 10 -20 -3 -3 -16 8 -30 23 -14 16 -26 23 -26 16 0 -15 14 -30 52 -55
30 -19 62 -13 53 10 -4 11 -1 13 10 9 9 -3 13 -2 10 3 -3 5 -1 12 5 16 13 8 3
25 -13 25 -8 0 -8 -3 2 -9 11 -7 11 -10 0 -17 -7 -4 -14 -3 -17 4 -2 7 -10 12
-17 12 -22 0 -39 69 -25 105 16 41 31 14 18 -32 -10 -36 -7 -46 16 -49 11 -2
12 4 4 27 -5 16 -8 34 -5 41 2 7 7 -2 11 -19 4 -18 21 -43 37 -57 18 -16 24
-26 16 -29 -9 -4 -9 -6 0 -6 24 -2 22 17 -3 33 -34 23 -48 61 -35 98 6 18 7
26 1 23 -6 -4 -10 -14 -10 -23 0 -12 -3 -13 -12 -4 -10 10 -2 21 34 55 51 46
114 84 125 74 3 -4 -1 -7 -11 -7 -25 0 -116 -94 -117 -122 -2 -42 2 -53 27
-75 27 -25 63 -31 60 -10 -1 6 -9 23 -19 37 -13 18 -17 20 -17 8 0 -9 8 -22
18 -27 9 -6 12 -11 5 -11 -6 0 -15 5 -19 11 -5 8 -9 8 -14 -1 -5 -9 -9 -9 -14
-1 -4 6 -3 11 3 11 5 0 7 14 5 33 -8 44 27 92 96 133 63 38 84 43 52 14 -12
-11 -26 -20 -32 -20 -16 0 -40 -26 -32 -35 4 -4 0 -5 -8 -3 -9 2 -15 -4 -15
-14 0 -9 -4 -20 -9 -25 -5 -4 -6 -3 -2 5 4 6 3 12 -2 12 -19 0 -23 -51 -7 -76
8 -13 18 -24 21 -24 4 0 1 7 -6 15 -7 9 -10 18 -6 22 3 3 6 1 6 -6 0 -7 5 -9
13 -5 6 4 9 4 5 -1 -4 -4 -2 -15 5 -23 6 -9 7 -13 1 -9 -6 3 -11 0 -11 -8 0
-10 5 -11 18 -4 21 11 32 12 26 2 -3 -5 16 -9 42 -9 42 -2 44 -1 16 8 -16 5
-35 10 -41 11 -7 2 -24 17 -38 34 -26 31 -26 32 -8 64 21 37 52 56 32 20 -9
-18 -7 -28 10 -56 20 -32 20 -34 3 -29 -13 4 -15 3 -5 -4 8 -5 39 -10 69 -11
53 -1 54 0 69 35 8 19 16 48 17 64 1 16 4 27 6 25 2 -3 16 2 32 10 45 24 49
19 32 -37 -8 -29 -17 -68 -19 -87 l-3 -34 52 6 52 6 -34 -14 c-18 -8 -44 -15
-58 -15 -13 0 -22 -4 -18 -10 3 -5 12 -7 20 -3 8 3 27 2 42 -2 25 -6 26 -8 10
-16 -10 -6 -28 -10 -40 -9 -35 3 -43 0 -28 -9 8 -5 37 -7 65 -5 l51 3 -40 -10
c-57 -14 -67 -29 -19 -29 30 0 36 3 24 11 -11 8 -7 9 17 4 43 -8 110 4 91 17
-9 7 -6 8 12 4 22 -4 23 -4 8 8 -10 7 -18 23 -18 35 0 11 -8 29 -17 39 -10 10
-19 25 -21 33 -2 8 -11 30 -21 49 -25 50 -34 90 -20 90 14 0 89 -79 89 -93 0
-17 34 -36 63 -37 15 0 27 3 27 8 0 9 49 32 68 32 7 0 11 4 8 9 -3 4 6 19 19
31 14 13 25 19 25 13 0 -6 -6 -14 -12 -16 -10 -4 -9 -6 1 -6 18 -1 -31 -40
-89 -69 l-45 -23 43 6 c25 3 42 1 42 -5 0 -5 -9 -10 -21 -10 -30 0 -14 -17 20
-22 17 -2 28 -1 26 3 -7 10 41 20 61 12 13 -5 15 -3 9 7 -5 9 -4 11 4 6 6 -4
8 -13 5 -19 -5 -9 -3 -8 6 0 11 10 10 16 -4 32 -12 13 -14 21 -6 26 6 3 9 2 8
-3 -2 -6 -1 -10 2 -9 3 0 15 -5 27 -11 16 -9 24 -9 29 0 4 6 3 8 -3 5 -13 -8
-29 12 -29 33 1 10 11 15 29 15 36 1 52 24 29 42 -13 10 -13 13 -3 11 9 -2 18
9 23 27 7 27 7 27 3 -7 -3 -28 0 -36 10 -32 8 3 11 13 8 22 -4 14 -3 15 6 2 7
-11 5 -19 -10 -33 -23 -21 -15 -45 9 -25 8 7 23 27 34 43 10 17 18 25 18 19 0
-16 -73 -104 -86 -104 -6 0 -18 -7 -25 -16 -7 -9 -24 -20 -37 -25 -13 -5 -21
-13 -18 -17 2 -4 -4 -9 -15 -9 -22 -2 -49 -20 -49 -34 0 -4 10 -9 23 -11 12
-2 21 -8 20 -14 -1 -6 10 -17 25 -25 15 -8 43 -26 62 -41 19 -15 47 -33 63
-41 l27 -14 -37 -2 c-33 -1 -79 -6 -107 -10 -14 -2 15 -31 32 -31 13 0 12 3
-4 15 -30 23 -6 18 27 -6 24 -17 33 -18 44 -9 8 7 12 16 9 21 -3 5 0 9 5 9 6
0 11 -5 11 -12 0 -8 3 -9 10 -2 8 8 23 8 49 1 32 -9 44 -7 73 9 19 10 67 37
107 59 40 22 100 61 133 88 59 46 87 59 72 35 -5 -9 -3 -9 9 1 9 7 15 17 12
21 -3 5 4 6 15 3 11 -3 20 -1 20 5 0 6 11 22 25 36 14 14 26 37 27 50 1 14 8
28 16 31 7 3 11 9 7 14 -3 5 -1 12 5 16 11 7 13 -9 4 -42 -4 -13 -10 -20 -15
-17 -5 3 -9 1 -9 -5 0 -27 20 -17 31 16 34 102 -2 195 -99 260 -73 49 -209 96
-327 113 -129 18 -395 21 -535 5z m21 -144 c-19 -12 8 -17 67 -12 30 2 40 6
31 12 -9 6 -10 9 -2 9 20 0 25 -20 6 -27 -10 -3 -26 -15 -35 -27 -16 -20 -16
-22 5 -38 21 -16 20 -17 -18 -3 -22 8 -61 14 -87 15 -60 0 -75 20 -16 21 33 0
38 2 23 9 -19 8 -19 9 -1 9 14 1 16 4 7 14 -12 16 -5 27 18 27 13 0 14 -2 2
-9z m-278 -58 c-7 -2 -19 -2 -25 0 -7 3 -2 5 12 5 14 0 19 -2 13 -5z m391 -2
c3 -4 3 -11 0 -14 -8 -7 -44 4 -44 14 0 12 37 12 44 0z m236 -16 c13 -14 21
-25 18 -25 -2 0 -15 11 -28 25 -13 14 -21 25 -18 25 2 0 15 -11 28 -25z m-185
-5 c3 -5 1 -10 -4 -10 -6 0 -11 5 -11 10 0 6 2 10 4 10 3 0 8 -4 11 -10z
m-445 -4 c0 -3 -4 -8 -10 -11 -5 -3 -10 -1 -10 4 0 6 5 11 10 11 6 0 10 -2 10
-4z m435 -54 c-3 -3 -11 0 -18 7 -9 10 -8 11 6 5 10 -3 15 -9 12 -12z m205 -6
c0 -14 -4 -27 -9 -31 -5 -3 -9 8 -9 25 1 36 18 41 18 6z m24 8 c3 -8 2 -12 -4
-9 -6 3 -10 10 -10 16 0 14 7 11 14 -7z m-150 -62 c-4 -10 -6 -21 -5 -27 1 -5
-6 -1 -14 9 -14 18 -20 15 -16 -8 2 -12 -30 -46 -43 -46 -6 0 -4 5 4 10 13 8
13 10 1 10 -12 0 -12 2 1 13 8 6 22 23 32 37 9 13 16 19 16 12 0 -28 20 1 21
31 2 32 2 32 6 4 3 -16 1 -36 -3 -45z m323 46 c-3 -8 -6 -5 -6 6 -1 11 2 17 5
13 3 -3 4 -12 1 -19z m-270 -20 c-3 -7 -5 -2 -5 12 0 14 2 19 5 13 2 -7 2 -19
0 -25z m190 10 c-3 -8 -6 -5 -6 6 -1 11 2 17 5 13 3 -3 4 -12 1 -19z m136 2
c-3 -12 -8 -19 -11 -16 -5 6 5 36 12 36 2 0 2 -9 -1 -20z m-446 -32 c-3 -7 -5
-2 -5 12 0 14 2 19 5 13 2 -7 2 -19 0 -25z m295 -10 c-7 -7 -12 -8 -12 -2 0
14 12 26 19 19 2 -3 -1 -11 -7 -17z m-1112 -33 c-7 -9 -15 -13 -18 -10 -3 2 1
11 8 20 7 9 15 13 18 10 3 -2 -1 -11 -8 -20z m1063 5 c-10 -11 -19 -20 -21
-20 -1 0 2 9 8 20 6 11 15 20 20 20 6 0 2 -9 -7 -20z m124 -22 c-20 -24 -36
-47 -37 -53 -1 -5 -7 -9 -12 -7 -14 4 -49 -28 -43 -39 9 -13 -16 -22 -28 -10
-9 9 -8 11 6 5 10 -3 17 -2 15 3 -2 8 120 142 130 143 2 0 -12 -19 -31 -42z
m-93 20 c-13 -24 -47 -58 -58 -58 -5 0 5 16 24 35 35 37 46 44 34 23z m132
-18 c0 -12 -4 -16 -9 -11 -5 5 -6 14 -3 20 10 15 12 14 12 -9z m-205 -23 c-6
-8 -9 -16 -6 -19 3 -3 -5 -13 -17 -24 -12 -10 -18 -13 -14 -6 4 6 2 12 -4 12
-6 0 2 11 17 25 31 27 41 32 24 12z m-254 -12 c0 -8 -4 -15 -9 -15 -10 0 -11
14 -1 23 9 10 10 9 10 -8z m427 -16 c-3 -5 -10 -7 -15 -3 -5 3 -7 10 -3 15 3
5 10 7 15 3 5 -3 7 -10 3 -15z m166 17 c0 -2 -8 -10 -17 -17 -16 -13 -17 -12
-4 4 13 16 21 21 21 13z m0 -29 c0 -2 -10 -12 -22 -23 l-23 -19 19 23 c18 21
26 27 26 19z m-416 -19 c-5 -8 -2 -9 9 -5 27 10 19 -1 -10 -16 -16 -7 -36 -12
-46 -9 -15 3 -12 7 15 22 40 23 41 23 32 8z m-1225 -48 c0 -9 -4 -8 -9 5 -5
11 -9 27 -9 35 0 9 4 8 9 -5 5 -11 9 -27 9 -35z m1327 5 c-1 -8 -5 -17 -8 -21
-5 -4 -4 16 1 34 3 9 9 -1 7 -13z m-156 -5 c-8 -5 -19 -10 -25 -10 -5 0 -3 5
5 10 8 5 20 10 25 10 6 0 3 -5 -5 -10z m-1220 -12 c0 -4 -4 -8 -9 -8 -5 0 -12
-8 -14 -17 -3 -12 -5 -9 -6 8 -1 17 4 26 14 26 8 0 15 -4 15 -9z m325 -38 c-3
-5 -12 -10 -18 -10 -7 0 -6 4 3 10 19 12 23 12 15 0z m-472 -40 c-3 -11 -7
-20 -9 -20 -2 0 -4 9 -4 20 0 11 4 20 9 20 5 0 7 -9 4 -20z m163 -5 c0 -19 -3
-22 -13 -13 -10 8 -10 14 -2 24 15 18 15 18 15 -11z m1411 -20 c0 -8 -4 -12
-9 -9 -5 3 -6 10 -3 15 9 13 12 11 12 -6z m-137 -55 c8 -5 11 -10 5 -10 -5 0
-17 5 -25 10 -8 5 -10 10 -5 10 6 0 17 -5 25 -10z"/>
<path d="M6555 6710 c-3 -6 1 -7 9 -4 18 7 21 14 7 14 -6 0 -13 -4 -16 -10z"/>
<path d="M937 6933 c-4 -3 -7 -20 -7 -36 0 -20 6 -30 19 -34 16 -4 20 -18 26
-86 3 -45 5 -98 3 -117 -3 -34 -2 -35 32 -35 l35 0 3 118 c2 109 4 117 22 117
17 0 20 7 20 40 l0 40 -73 0 c-41 0 -77 -3 -80 -7z"/>
<path d="M1112 6783 l3 -158 30 0 c30 0 30 1 33 58 2 41 7 57 17 57 10 0 15
-16 17 -57 3 -57 3 -58 33 -58 l30 0 3 158 3 157 -36 0 -35 0 0 -60 c0 -47 -3
-60 -15 -60 -12 0 -15 13 -15 60 l0 60 -35 0 -36 0 3 -157z"/>
<path d="M1304 6927 c-2 -7 -3 -78 -2 -157 l3 -145 61 -2 c68 -3 88 9 82 49
-2 18 -10 24 -35 26 -27 3 -33 8 -33 27 0 18 6 24 28 27 24 3 27 7 27 38 0 31
-3 35 -27 38 -41 5 -39 42 1 42 32 0 40 12 33 47 -4 21 -10 23 -68 23 -44 0
-66 -4 -70 -13z"/>
<path d="M5716 6805 c-3 -9 -6 -22 -5 -28 0 -7 5 -1 10 12 5 13 8 26 5 28 -2
2 -6 -3 -10 -12z"/>
<path d="M6568 6798 c-24 -24 -23 -36 0 -15 10 10 22 14 25 10 4 -3 7 -1 7 5
0 19 -14 19 -32 0z"/>
<path d="M5803 6796 c1 -11 9 -21 17 -23 10 -3 11 -2 4 4 -6 4 -14 15 -17 23
-5 11 -6 9 -4 -4z"/>
<path d="M6523 6795 c0 -8 2 -15 4 -15 3 0 11 7 19 15 14 13 13 15 -4 15 -10
0 -19 -7 -19 -15z"/>
<path d="M5532 6786 c-1 -6 -5 -27 -8 -47 -4 -22 -2 -39 5 -43 6 -4 11 -2 11
5 0 7 6 5 13 -6 19 -25 25 -9 18 50 -4 36 -11 50 -22 51 -9 1 -16 -4 -17 -10z
m26 -42 c-3 -14 -5 -12 -10 9 -3 19 -2 25 4 19 6 -6 8 -18 6 -28z m-21 -16
c-3 -8 -6 -5 -6 6 -1 11 2 17 5 13 3 -3 4 -12 1 -19z"/>
<path d="M7189 6762 c-8 -10 -19 -24 -24 -32 -8 -13 -7 -13 9 -1 16 13 41 51
34 51 -2 0 -10 -8 -19 -18z"/>
<path d="M6430 6715 c-14 -16 -10 -18 14 -9 9 3 16 10 16 15 0 14 -16 11 -30
-6z"/>
<path d="M7135 6700 c-4 -6 -11 -7 -17 -4 -7 5 -8 2 -4 -5 5 -7 0 -18 -10 -26
-11 -8 -16 -15 -12 -15 4 0 22 14 40 30 18 17 27 30 21 30 -7 0 -15 -5 -18
-10z"/>
<path d="M5435 6660 c-4 -6 -1 -18 7 -26 12 -13 17 -12 34 8 13 16 14 19 2 10
-14 -11 -18 -10 -26 4 -7 12 -11 13 -17 4z"/>
<path d="M5331 6644 c0 -11 3 -14 6 -6 3 7 2 16 -1 19 -3 4 -6 -2 -5 -13z"/>
<path d="M5370 6656 c0 -15 41 -76 51 -76 6 0 8 -4 4 -9 -7 -12 13 -25 39 -26
14 -2 9 6 -19 29 -21 16 -46 44 -56 61 -11 16 -19 26 -19 21z"/>
<path d="M5715 6650 c-4 -6 -14 -9 -24 -6 -12 5 -11 2 3 -9 11 -8 25 -15 30
-15 6 0 5 4 -3 9 -11 7 -11 9 0 13 8 3 11 8 8 12 -4 4 -10 2 -14 -4z"/>
<path d="M5928 6633 c7 -3 16 -2 19 1 4 3 -2 6 -13 5 -11 0 -14 -3 -6 -6z"/>
<path d="M6220 6620 c-14 -4 -40 -8 -57 -9 -18 -1 -33 -6 -33 -12 0 -7 16 -9
49 -4 60 8 103 -8 50 -19 -18 -3 -49 -4 -68 0 -28 4 -33 3 -21 -6 15 -11 -22
-9 -105 7 -16 3 -27 2 -22 -3 4 -4 26 -11 50 -15 32 -6 24 -7 -33 -5 -53 3
-79 0 -87 -9 -10 -11 -10 -15 0 -18 7 -3 4 -6 -5 -6 -10 -1 -18 -5 -18 -10 0
-4 33 -11 74 -14 41 -3 83 -11 93 -17 17 -11 16 -11 -2 -5 -11 4 -56 8 -100
10 -66 3 -71 2 -30 -4 l50 -8 -52 -1 c-45 -2 -54 -6 -73 -31 -11 -16 -17 -32
-13 -34 5 -3 38 -8 75 -12 37 -3 80 -11 95 -16 28 -9 -6 -7 -121 7 -58 7 -82
-8 -26 -16 l45 -7 -47 -1 c-45 -2 -54 -8 -49 -36 1 -4 -3 -14 -9 -21 -11 -13
-8 -13 145 -30 30 -3 34 -2 15 4 -18 6 2 10 75 15 115 9 171 18 271 43 70 18
71 19 62 43 -5 14 -16 31 -26 39 -15 12 -14 13 11 9 22 -4 25 -3 16 8 -9 11
-8 14 4 14 9 0 19 -4 22 -10 8 -13 25 -13 25 -1 0 5 -16 15 -35 21 -28 9 -39
9 -51 -1 -8 -6 -17 -9 -21 -5 -3 3 -1 6 5 6 10 0 -48 102 -78 137 -5 7 -10 17
-10 23 0 11 -5 11 -40 0z m-180 -90 c0 -5 -4 -10 -10 -10 -5 0 -10 5 -10 10 0
6 5 10 10 10 6 0 10 -4 10 -10z m210 -10 c11 -8 7 -9 -15 -4 -37 8 -45 14 -19
14 10 0 26 -5 34 -10z m-77 -7 c-7 -2 -21 -2 -30 0 -10 3 -4 5 12 5 17 0 24
-2 18 -5z m-38 -13 c27 -7 27 -8 5 -8 -14 0 -38 4 -55 8 -27 7 -27 8 -5 8 14
0 39 -4 55 -8z m167 -75 c10 -4 15 -11 12 -17 -3 -5 -11 -4 -20 3 -11 9 -18 9
-29 -1 -12 -10 -21 -9 -48 4 l-32 16 45 -5 c35 -4 40 -3 23 4 -51 23 -7 19 49
-4z m28 15 c8 -5 11 -10 5 -10 -5 0 -17 5 -25 10 -8 5 -10 10 -5 10 6 0 17 -5
25 -10z m-145 -36 l30 -14 -35 5 c-19 3 -39 10 -44 15 -15 15 14 12 49 -6z
m-132 -1 c-7 -2 -19 -2 -25 0 -7 3 -2 5 12 5 14 0 19 -2 13 -5z m67 -13 c20
-6 21 -8 5 -8 -11 0 -29 3 -40 8 -25 11 1 11 35 0z m207 -26 c-3 -3 -12 -4
-19 -1 -8 3 -5 6 6 6 11 1 17 -2 13 -5z m-47 -8 c0 -2 -11 -6 -25 -8 -13 -3
-22 -1 -19 3 5 9 44 13 44 5z m-110 -16 c-8 -5 -19 -10 -25 -10 -5 0 -3 5 5
10 8 5 20 10 25 10 6 0 3 -5 -5 -10z"/>
<path d="M6312 6621 c-11 -7 -10 -9 3 -14 9 -4 13 -3 10 2 -3 5 3 12 12 14 13
3 14 5 3 6 -8 0 -21 -3 -28 -8z"/>
<path d="M5975 6610 c-3 -5 1 -10 9 -10 9 0 16 5 16 10 0 6 -4 10 -9 10 -6 0
-13 -4 -16 -10z"/>
<path d="M5688 6603 c7 -3 16 -2 19 1 4 3 -2 6 -13 5 -11 0 -14 -3 -6 -6z"/>
<path d="M6055 6590 c-4 -6 8 -10 29 -10 20 0 36 5 36 10 0 6 -13 10 -29 10
-17 0 -33 -4 -36 -10z"/>
<path d="M5575 6580 c-3 -5 1 -10 9 -10 8 0 18 5 21 10 3 6 -1 10 -9 10 -8 0
-18 -4 -21 -10z"/>
<path d="M5950 6580 c0 -5 11 -10 25 -10 14 0 25 5 25 10 0 6 -11 10 -25 10
-14 0 -25 -4 -25 -10z"/>
<path d="M6188 6583 c6 -2 18 -2 25 0 6 3 1 5 -13 5 -14 0 -19 -2 -12 -5z"/>
<path d="M6450 6580 c8 -5 22 -9 30 -9 10 0 8 3 -5 9 -27 12 -43 12 -25 0z"/>
<path d="M5621 6564 c0 -11 3 -14 6 -6 3 7 2 16 -1 19 -3 4 -6 -2 -5 -13z"/>
<path d="M6395 6571 c-6 -11 13 -26 22 -17 4 3 1 6 -6 6 -7 0 -9 5 -6 10 3 6
4 10 1 10 -3 0 -7 -4 -11 -9z"/>
<path d="M952 6551 c-8 -4 -12 -19 -10 -32 l3 -24 994 0 c948 0 994 1 1005 18
9 15 7 21 -8 33 -17 12 -161 14 -995 14 -537 0 -982 -4 -989 -9z"/>
<path d="M5515 6541 c-3 -5 -2 -12 3 -15 5 -3 9 1 9 9 0 17 -3 19 -12 6z"/>
<path d="M5593 6515 c0 -8 4 -12 9 -9 5 3 6 10 3 15 -9 13 -12 11 -12 -6z"/>
<path d="M6480 6499 c0 -6 -9 -8 -20 -4 -33 11 -22 -3 20 -25 31 -16 38 -17
34 -5 -4 8 -2 15 4 15 6 0 12 -6 15 -12 3 -10 7 -10 19 -1 8 7 18 10 21 6 4
-3 7 -1 7 6 0 8 -7 10 -20 6 -12 -4 -26 -2 -33 3 -21 15 -47 22 -47 11z"/>
<path d="M5510 6476 c-5 -13 -15 -26 -22 -29 -7 -3 2 -3 19 0 18 3 39 0 46 -6
15 -12 27 -5 27 15 0 8 -6 11 -17 7 -9 -4 -14 -2 -10 3 3 6 -3 15 -14 22 -17
11 -21 9 -29 -12z m30 0 c0 -3 -4 -8 -10 -11 -5 -3 -10 -1 -10 4 0 6 5 11 10
11 6 0 10 -2 10 -4z"/>
<path d="M6430 6471 c0 -9 24 -21 43 -21 6 0 2 7 -9 15 -22 17 -34 19 -34 6z"/>
<path d="M5388 6458 c5 -5 16 -8 23 -6 8 3 3 7 -10 11 -17 4 -21 3 -13 -5z"/>
<path d="M5433 6435 c0 -8 4 -12 9 -9 5 3 6 10 3 15 -9 13 -12 11 -12 -6z"/>
<path d="M5388 6433 c7 -3 16 -2 19 1 4 3 -2 6 -13 5 -11 0 -14 -3 -6 -6z"/>
<path d="M5320 6415 c0 -8 5 -15 10 -15 6 0 10 7 10 15 0 8 -4 15 -10 15 -5 0
-10 -7 -10 -15z"/>
<path d="M5390 6405 c0 -8 2 -15 4 -15 2 0 6 7 10 15 3 8 1 15 -4 15 -6 0 -10
-7 -10 -15z"/>
<path d="M5508 6403 c7 -3 16 -2 19 1 4 3 -2 6 -13 5 -11 0 -14 -3 -6 -6z"/>
<path d="M6560 6370 c0 -5 7 -7 15 -4 8 4 15 8 15 10 0 2 -7 4 -15 4 -8 0 -15
-4 -15 -10z"/>
<path d="M6587 6365 c-11 -8 -25 -11 -33 -8 -8 3 -14 -1 -14 -11 0 -8 11 -18
25 -22 27 -7 35 -34 10 -34 -8 0 -15 -8 -15 -17 -1 -17 -1 -17 -11 0 -12 20
-59 23 -59 4 0 -8 11 -20 25 -27 18 -10 22 -16 13 -22 -10 -5 -8 -8 5 -8 10 0
17 -8 17 -19 0 -38 -34 -34 -42 4 -2 11 -2 -88 0 -220 3 -132 1 -374 -3 -538
l-7 -297 -27 0 c-15 0 -36 -7 -48 -15 -14 -10 -24 -12 -28 -5 -8 13 -45 13
-45 0 0 -5 9 -19 20 -30 11 -11 20 -24 20 -29 0 -8 39 -23 65 -25 19 -2 33
-81 28 -153 l-6 -73 27 0 26 0 -1 133 c-1 81 -4 122 -9 107 -7 -22 -8 -21 -9
12 -1 27 3 37 16 40 15 3 16 5 2 17 -11 11 -14 35 -11 120 3 58 8 108 13 111
5 4 10 136 12 295 2 160 3 104 2 -122 -1 -227 1 -413 4 -413 4 0 6 -15 5 -32
-16 -200 -16 -280 -3 -276 10 3 16 29 21 84 3 43 10 114 13 156 7 67 5 79 -9
84 -14 5 -16 32 -16 228 0 258 13 812 18 779 4 -29 42 -32 42 -4 0 10 5 32 11
49 l11 32 33 -32 c19 -17 32 -35 29 -40 -3 -4 2 -11 11 -14 34 -13 25 7 -24
55 -28 27 -51 54 -51 60 0 6 -5 11 -11 11 -5 0 -7 5 -4 11 4 6 -1 17 -11 25
-18 15 -18 15 1 9 11 -4 28 -10 38 -12 10 -3 16 -12 13 -19 -7 -18 4 -17 27 0
16 12 16 14 1 20 -8 3 -24 6 -35 6 -13 0 -19 7 -19 23 0 13 -8 31 -17 40 -15
13 -21 13 -36 2z m-20 -172 c-3 -10 -5 -2 -5 17 0 19 2 27 5 18 2 -10 2 -26 0
-35z m-21 -60 c-10 -10 -19 5 -10 18 6 11 8 11 12 0 2 -7 1 -15 -2 -18z m1
-140 c-3 -10 -5 -2 -5 17 0 19 2 27 5 18 2 -10 2 -26 0 -35z"/>
<path d="M6510 6360 c-9 -6 -10 -10 -3 -10 6 0 14 -8 16 -17 3 -11 5 -7 6 10
1 30 1 30 -19 17z"/>
<path d="M6675 6326 c-17 -12 -16 -13 10 -20 30 -8 54 12 32 26 -16 11 -20 10
-42 -6z"/>
<path d="M4951 6150 c-95 -14 -96 -21 -1 -16 77 3 80 2 30 -6 -30 -5 -95 -17
-145 -28 -49 -11 -99 -22 -110 -24 -11 -2 -33 -9 -48 -15 -47 -18 -45 -11 2
10 24 11 42 22 39 25 -3 2 -34 -8 -69 -23 -139 -58 -234 -143 -265 -235 -10
-32 -19 -46 -24 -38 -4 7 -13 9 -19 6 -13 -9 -15 -46 -2 -46 10 0 5 -34 -11
-67 -8 -16 -7 -32 6 -62 9 -23 11 -41 6 -41 -6 0 -10 -4 -10 -10 0 -5 6 -7 14
-4 8 3 17 1 21 -5 4 -7 -14 -11 -52 -12 -52 -2 -54 -2 -19 -8 37 -6 38 -7 19
-23 -18 -16 -83 -21 -83 -7 0 4 -14 12 -30 19 -25 10 -29 16 -23 34 4 11 8 41
8 66 0 37 -3 45 -17 44 -10 -1 -18 5 -18 13 0 10 7 14 20 10 15 -4 20 0 20 15
0 15 -5 19 -20 15 -14 -3 -21 1 -26 17 -8 27 -45 79 -51 73 -2 -3 -34 18 -71
45 -37 28 -101 67 -143 86 -44 20 -75 40 -73 47 7 17 -60 34 -173 44 -112 10
-178 3 -178 -19 0 -10 -22 -18 -80 -28 -44 -7 -99 -22 -124 -33 -24 -10 -46
-17 -49 -14 -3 3 16 14 41 25 58 26 61 34 6 15 -23 -8 -50 -15 -60 -15 -11 0
-19 -5 -19 -12 0 -6 -18 -27 -41 -46 -23 -20 -38 -40 -35 -48 3 -8 -5 -21 -18
-29 -37 -24 -76 -112 -78 -177 -2 -32 -6 -58 -9 -58 -4 0 -10 -7 -13 -16 -3
-8 -2 -12 4 -9 6 4 10 -7 10 -24 0 -21 -5 -31 -15 -31 -16 0 -20 -16 -6 -24 4
-3 6 -17 4 -30 -7 -35 26 -86 54 -86 26 0 28 -7 13 -44 -6 -17 -17 -26 -30
-26 -14 0 -19 -4 -14 -12 4 -7 3 -8 -4 -4 -9 5 -8 15 4 37 8 17 13 33 11 35
-7 8 -47 -61 -47 -82 0 -11 -7 -28 -15 -38 -9 -12 -11 -22 -5 -26 5 -3 6 -17
3 -30 l-7 -25 -7 25 c-7 24 -7 24 -8 2 -1 -12 6 -25 14 -28 8 -4 15 -10 15
-15 0 -4 -7 -6 -16 -2 -24 9 -14 -47 11 -61 11 -6 23 -15 27 -21 4 -5 10 -6
14 -2 4 4 13 2 19 -3 7 -6 57 -15 111 -20 139 -14 204 -25 324 -59 58 -16 121
-31 140 -34 19 -3 66 -19 105 -37 50 -23 77 -30 99 -26 29 6 29 6 11 -8 -18
-14 -18 -15 -2 -16 10 0 34 7 54 15 39 16 49 14 40 -9 -3 -8 -14 -14 -24 -12
-10 2 -27 0 -38 -4 -18 -6 -17 -8 10 -22 17 -9 45 -34 63 -57 18 -22 38 -39
45 -37 6 1 9 1 5 -1 -4 -3 11 -27 32 -55 22 -27 40 -56 40 -65 0 -11 7 -13 29
-8 35 7 61 -5 114 -51 20 -19 45 -34 55 -35 9 0 12 -3 5 -5 -7 -3 -9 -12 -7
-19 6 -16 -10 -21 -98 -29 -48 -5 -58 -3 -58 9 0 8 -4 15 -8 15 -4 0 -14 21
-21 47 -20 67 -54 122 -102 168 l-43 40 37 -47 c54 -68 81 -133 81 -197 0 -52
1 -53 13 -25 8 19 12 23 13 11 0 -24 -76 -104 -125 -130 -68 -36 -139 -55
-159 -43 -13 9 -20 7 -30 -6 -7 -10 -18 -18 -25 -18 -6 0 -14 -13 -17 -29 -4
-18 -14 -32 -28 -36 -20 -7 -20 -7 4 -14 14 -5 29 -4 35 1 5 4 15 8 23 8 10 0
7 -8 -9 -24 -28 -28 -142 -50 -224 -44 -47 3 -48 4 -25 15 l25 12 -26 0 c-14
1 -29 -2 -33 -6 -7 -8 -11 -9 -53 -11 -13 -1 -25 -12 -32 -29 l-11 -28 4 27
c1 15 -1 29 -7 31 -6 2 -6 10 2 23 10 15 11 15 7 2 -4 -14 0 -18 17 -17 12 0
16 3 10 6 -16 6 -17 39 -1 49 8 5 9 0 6 -14 -5 -17 -2 -22 12 -22 29 0 31 26
3 39 -13 6 -29 9 -34 6 -5 -3 -6 1 -3 9 3 8 20 17 37 19 18 2 3 4 -33 5 -39 0
-57 -2 -46 -7 18 -7 18 -8 2 -14 -10 -4 -14 -12 -10 -18 20 -33 -377 46 -443
89 -18 11 -20 18 -13 32 8 16 5 20 -23 29 -17 6 -51 13 -74 17 -24 4 -43 10
-43 14 0 4 -27 21 -59 39 -54 28 -59 29 -54 11 6 -22 -7 -26 -25 -8 -7 7 -12
8 -12 2 0 -6 22 -21 48 -34 40 -20 48 -28 44 -47 -3 -17 -11 -23 -29 -23 -13
0 -21 4 -18 10 3 6 -1 7 -9 4 -10 -4 -16 -1 -16 8 0 17 -20 36 -73 67 -49 30
-47 21 3 -14 22 -15 40 -32 40 -36 0 -11 -109 62 -134 90 -12 13 -16 27 -11
42 l8 23 17 -22 c10 -12 24 -22 31 -22 8 0 7 5 -4 18 -10 11 -13 27 -10 45 4
21 2 26 -10 21 -8 -3 -18 0 -22 5 -3 6 -10 9 -14 7 -3 -3 -7 3 -8 12 -3 33
-12 67 -24 98 -7 17 -9 42 -6 56 13 52 71 120 136 159 74 44 74 51 1 14 -28
-14 -70 -45 -95 -68 -25 -24 -45 -41 -45 -38 0 3 -6 -4 -14 -15 -20 -28 -55
-122 -48 -128 3 -4 0 -6 -6 -6 -6 0 0 -12 13 -26 14 -15 25 -33 25 -40 0 -15
-21 -15 -33 1 -4 6 -10 0 -13 -13 -5 -18 -9 -20 -15 -10 -7 10 -9 9 -9 -4 0
-10 -6 -18 -14 -18 -9 0 -16 -16 -20 -44 -4 -24 -14 -50 -21 -56 -24 -20 -107
-162 -102 -174 3 -7 24 -20 47 -29 37 -14 41 -14 36 0 -5 11 -2 14 10 9 8 -3
20 -6 25 -6 5 0 9 -5 9 -11 0 -5 -4 -7 -10 -4 -5 3 -10 1 -10 -4 0 -6 6 -11
14 -11 15 0 29 -27 21 -40 -3 -5 1 -26 10 -47 12 -29 18 -34 25 -23 5 8 6 19
3 25 -4 5 13 -8 38 -30 24 -22 61 -53 81 -69 29 -21 37 -33 33 -50 -4 -16 3
-26 27 -43 18 -12 42 -25 53 -29 17 -7 18 -6 7 8 -9 11 -10 18 -2 23 6 3 7 11
4 17 -4 7 -9 7 -13 0 -3 -6 -18 0 -36 14 -17 14 -25 24 -20 23 25 -4 22 3 -13
37 -34 34 -35 35 -7 18 94 -56 125 -78 125 -85 0 -5 6 -9 13 -9 7 0 32 -9 55
-20 22 -11 46 -20 52 -20 5 0 10 -4 10 -9 0 -12 118 -48 275 -81 77 -17 155
-34 173 -39 19 -6 30 -5 26 0 -3 5 9 9 25 9 17 0 31 -4 31 -10 0 -5 -4 -10
-10 -10 -19 0 -10 -17 15 -28 36 -17 80 -15 95 3 7 9 19 14 27 11 8 -3 11 -2
8 3 -3 6 -20 9 -38 9 -17 -1 -26 -3 -19 -5 20 -7 3 -23 -24 -23 -18 0 -24 5
-22 18 2 9 -3 16 -9 14 -7 -1 -13 2 -13 6 0 5 44 10 98 11 53 1 125 6 159 11
34 4 72 6 84 3 15 -4 20 -3 15 5 -8 14 0 14 29 2 18 -7 18 -9 -10 -21 -23 -11
-29 -20 -27 -36 3 -19 -1 -23 -21 -23 -14 0 -27 -5 -29 -11 -2 -6 -31 -14 -66
-18 -34 -4 -63 -9 -65 -12 -14 -18 -40 -96 -52 -154 -17 -83 -19 -108 -5 -100
6 3 10 -1 10 -10 0 -9 5 -13 10 -10 6 3 10 2 10 -3 0 -13 94 -106 122 -120 13
-7 41 -26 63 -42 34 -26 77 -48 190 -101 37 -17 180 -59 201 -59 20 0 20 -5
21 -112 0 -98 -3 -119 -24 -159 -12 -26 -23 -56 -23 -67 0 -12 -4 -24 -10 -27
-5 -3 -10 -17 -10 -30 0 -22 -2 -23 -36 -14 -19 6 -41 8 -47 6 -14 -4 45 -37
67 -37 9 0 33 -9 54 -20 l39 -20 -3 -58 c-2 -31 -3 -68 -4 -81 0 -21 -3 -23
-37 -18 -106 14 -278 86 -400 167 -80 53 -208 178 -260 255 -78 115 -128 238
-154 372 -15 79 -7 259 15 333 9 30 19 72 23 92 6 37 5 37 -23 29 -16 -4 -36
-6 -44 -4 -13 4 -13 3 0 -6 12 -8 11 -23 -10 -108 -34 -135 -35 -345 -1 -476
14 -56 20 -99 16 -118 -6 -28 -2 -37 38 -78 24 -25 66 -80 93 -121 95 -147
238 -268 425 -361 57 -29 111 -58 120 -66 9 -8 28 -15 43 -17 14 -1 35 -14 46
-28 13 -17 34 -29 60 -33 22 -4 40 -12 41 -18 0 -7 5 1 10 18 9 32 33 415 32
510 -1 58 0 61 28 74 15 7 34 9 41 5 9 -6 5 -10 -12 -15 -25 -7 -25 -7 -2 -8
28 -1 19 -21 -9 -21 -10 0 -19 -3 -20 -7 0 -5 -2 -114 -4 -243 -3 -129 -8
-266 -13 -305 -11 -85 -8 -97 26 -117 23 -14 31 -32 52 -115 21 -85 26 -94 32
-68 4 17 6 -15 4 -70 -1 -55 1 -113 6 -130 5 -16 11 -39 13 -49 7 -32 20 -38
101 -43 90 -6 129 5 137 39 3 13 12 42 21 65 12 33 14 53 6 94 -6 28 -9 63 -9
78 1 25 2 25 9 -4 l8 -30 1 33 c1 29 36 170 44 178 4 5 84 5 152 2 l50 -3 5
97 c3 53 10 102 16 108 6 7 30 14 53 17 22 3 41 10 41 15 0 6 7 8 15 4 8 -3
18 0 22 7 5 7 49 32 98 56 180 87 360 235 462 382 54 79 123 203 123 223 0 14
-53 35 -90 36 -11 1 -10 4 4 15 19 15 19 15 -2 15 -13 0 -22 -6 -22 -15 0 -9
-7 -18 -16 -22 -11 -4 -12 -8 -4 -13 14 -9 -9 -65 -47 -116 -13 -17 -23 -36
-23 -42 0 -7 -4 -12 -8 -12 -5 0 -13 -9 -18 -20 -13 -28 -135 -151 -148 -149
-21 4 -66 -13 -60 -22 3 -5 -4 -9 -14 -9 -11 0 -25 -7 -32 -15 -7 -8 -20 -15
-30 -15 -10 0 -23 -7 -30 -15 -7 -8 -18 -15 -24 -15 -6 0 -20 -13 -29 -30 -10
-16 -24 -30 -32 -30 -16 0 -144 -101 -190 -150 -25 -26 -31 -42 -35 -92 -7
-81 -25 -86 -33 -9 l-6 59 77 78 c42 42 54 56 25 31 -85 -76 -75 -53 12 28 75
70 114 97 84 58 -7 -10 1 -5 19 11 17 16 30 32 27 34 -3 3 2 14 12 24 29 33 5
19 -55 -31 -33 -28 -63 -47 -67 -43 -4 4 -5 1 -3 -7 2 -7 -2 -15 -9 -18 -7 -3
-9 3 -6 17 4 13 11 19 20 16 10 -4 13 0 11 17 -2 14 -11 23 -26 25 -27 4 -55
-16 -48 -33 2 -6 -2 -12 -10 -12 -7 0 -10 5 -7 11 3 6 0 5 -8 -2 -21 -19 -25
-15 -27 28 -2 34 0 40 17 40 19 0 71 19 81 30 3 3 22 14 42 25 20 10 34 23 31
29 -4 5 1 7 10 3 9 -3 19 -2 22 3 4 6 -15 10 -44 10 -47 0 -68 -13 -39 -22 7
-3 5 -7 -6 -11 -10 -4 -15 -3 -11 3 4 6 -14 10 -44 10 -39 0 -51 -4 -51 -15 0
-8 -4 -15 -10 -15 -6 0 -6 9 1 26 8 22 7 25 -4 16 -10 -9 -13 -5 -15 16 -1 21
0 24 8 12 7 -12 10 -8 10 14 0 16 -7 34 -17 41 -9 7 -17 21 -18 31 -1 10 -6
28 -10 39 -4 11 -8 25 -10 31 -2 6 -23 9 -54 7 -43 -4 -51 -2 -51 12 0 15 7
16 51 10 35 -5 49 -4 45 3 -3 6 9 16 29 23 19 7 35 16 35 19 0 14 -14 19 -25
10 -8 -6 -21 -5 -39 3 -24 11 -26 16 -24 60 3 45 6 50 43 70 22 12 42 25 43
30 2 4 10 7 18 7 8 0 41 17 72 39 31 21 67 41 80 45 12 4 22 11 22 16 0 5 17
19 37 31 40 25 131 114 106 105 -8 -3 -19 -6 -23 -6 -5 0 -17 -16 -26 -35 -13
-28 -22 -35 -44 -35 -17 0 -31 -7 -35 -17 -6 -15 -10 -11 -20 17 -6 19 -16 34
-21 32 -5 -2 -10 1 -12 6 -1 5 17 6 45 1 76 -12 73 -14 73 46 l0 55 39 0 c29
0 41 5 44 18 5 17 11 -41 8 -67 -2 -7 2 -11 7 -8 4 4 7 69 6 146 l-3 140 34
-16 c19 -9 38 -26 41 -37 9 -27 54 -82 54 -64 0 7 -7 21 -15 31 -7 11 -11 25
-9 31 3 7 -2 19 -10 26 -9 7 -13 16 -10 21 3 5 -7 14 -23 20 -25 9 -63 41 -63
53 0 3 29 3 64 1 60 -4 65 -3 70 18 2 12 4 2 2 -23 -1 -25 4 -56 11 -70 7 -14
13 -33 13 -42 0 -10 6 -18 13 -18 8 0 8 -3 -2 -9 -10 -6 -12 -19 -7 -42 3 -18
3 -30 0 -26 -4 4 -14 1 -22 -6 -12 -9 -16 -9 -19 1 -3 6 -19 12 -36 12 l-32 0
-1 -72 c-1 -46 3 -76 11 -84 6 -7 18 -40 24 -74 14 -68 53 -121 119 -162 21
-12 43 -28 50 -35 7 -7 21 -13 30 -12 15 0 15 2 -2 12 -45 29 -68 54 -65 72 4
17 8 16 37 -13 35 -35 58 -40 86 -19 16 11 36 9 138 -19 222 -61 553 -101 766
-92 61 2 82 0 82 -10 0 -6 -3 -11 -7 -10 -5 2 -10 -1 -13 -6 -3 -5 3 -10 13
-12 13 -2 17 5 18 34 0 21 3 31 6 25 2 -7 21 -13 41 -13 50 0 280 35 368 55
l72 16 1 87 c1 50 6 89 12 93 19 12 -29 51 -53 43 -13 -4 -18 -2 -14 4 3 6 1
14 -5 17 -7 5 -10 -2 -7 -21 1 -15 -2 -29 -8 -31 -6 -2 -11 2 -11 9 0 7 -3 38
-7 68 -5 36 -4 50 2 41 8 -11 11 -10 15 5 4 16 5 16 6 -3 1 -18 7 -23 30 -23
24 0 28 4 24 19 -3 11 -16 22 -30 26 -39 10 -20 16 26 9 38 -6 41 -9 42 -38 1
-17 3 -23 6 -13 3 10 14 17 28 17 13 0 31 3 41 7 15 6 17 1 11 -46 -7 -55 -20
-81 -42 -81 -14 0 -28 -139 -15 -153 4 -4 31 10 60 32 29 22 58 37 63 34 6 -3
7 -2 4 4 -4 6 0 19 9 29 14 18 15 18 9 -3 -5 -18 -2 -23 14 -23 10 0 26 -3 35
-6 22 -8 22 43 0 74 -14 21 -42 33 -29 13 3 -5 1 -12 -5 -16 -5 -3 -10 3 -10
14 0 13 -7 21 -16 21 -12 0 -15 6 -10 23 3 12 6 30 6 39 0 10 10 20 25 24 28
7 31 16 11 33 -21 17 -37 69 -24 73 6 2 4 10 -5 20 -9 8 -13 19 -9 24 4 5 -1
2 -12 -6 -18 -14 -18 -13 -11 20 5 19 9 46 10 60 1 14 3 41 5 60 3 35 3 35 11
-10 6 -39 7 -36 4 23 -1 37 1 67 5 67 4 0 8 35 9 78 0 42 4 111 7 153 6 72 5
77 -15 84 -12 4 -21 15 -21 26 0 11 4 18 9 15 8 -5 14 15 27 107 5 30 3 37
-10 37 -9 0 -16 5 -16 10 0 12 79 8 99 -4 11 -7 9 -38 -5 -101 -5 -19 -4 -19
10 -2 24 30 31 96 12 110 -8 7 -17 30 -19 52 -2 36 -5 40 -29 40 -25 -1 -25 0
-9 22 9 12 22 23 29 23 14 0 17 20 3 20 -5 0 -12 17 -16 38 -6 30 -9 33 -15
18 -6 -19 -7 -19 -12 1 -3 12 -16 27 -29 33 l-22 13 21 -28 c12 -15 22 -33 22
-40 0 -41 -200 -105 -435 -140 -97 -15 -360 -23 -435 -13 -22 3 -25 -1 -28
-29 l-3 -32 -82 5 c-122 7 -309 25 -335 31 -13 3 -27 15 -32 27 -7 18 -26 24
-141 44 -73 13 -139 27 -148 32 -9 4 -41 15 -71 25 -68 22 -163 71 -186 96
-15 17 -15 20 6 49 12 17 45 44 73 60 59 34 45 40 -22 10 -51 -24 -57 -25 -38
-6 20 20 187 72 277 86 41 7 127 21 190 31 108 18 110 18 37 13 -43 -2 -85 -7
-95 -10 -13 -4 -13 -2 2 8 64 43 120 107 159 185 26 52 46 82 54 79 9 -4 12 8
9 44 -4 42 -1 52 16 64 20 14 20 14 -6 69 -14 30 -33 58 -43 61 -16 6 -16 6 0
-12 24 -26 22 -29 -17 -24 l-35 4 -3 102 c-2 63 1 111 8 125 8 15 13 18 16 9
3 -9 13 -4 31 17 38 43 36 48 -25 48 -10 0 -18 4 -18 9 0 16 20 48 31 48 6 0
8 -4 4 -10 -3 -5 7 -8 25 -7 36 2 37 7 5 37 -18 17 -22 27 -14 36 7 8 6 14 -3
17 -8 3 -6 6 5 6 15 1 16 4 6 24 -7 12 -16 24 -20 27 -4 3 -21 35 -38 70 -17
36 -31 61 -31 57 0 -5 -25 14 -55 41 -74 65 -139 97 -265 129 -58 14 -109 32
-115 39 -13 17 -206 26 -294 14z m116 -16 c-3 -3 -12 -4 -19 -1 -8 3 -5 6 6 6
11 1 17 -2 13 -5z m288 -49 c159 -44 289 -134 327 -228 22 -55 22 -72 -2 -123
-31 -64 -83 -113 -174 -164 -31 -18 -56 -38 -56 -46 0 -20 -35 -52 -65 -60
-24 -6 -24 -7 -8 -19 17 -13 17 -14 -2 -32 -25 -23 -70 -29 -62 -9 8 20 -56
25 -163 13 -104 -11 -303 -4 -347 13 -18 6 -33 18 -33 26 0 8 -7 14 -15 14
-25 0 3 -35 39 -49 22 -8 27 -14 18 -20 -13 -8 99 -21 184 -21 33 0 42 -3 38
-14 -4 -11 -24 -13 -92 -9 -108 7 -236 30 -182 33 l35 2 -35 8 c-21 5 -36 5
-38 -1 -2 -5 -10 -9 -18 -9 -7 0 -11 6 -8 14 6 15 -22 30 -38 20 -6 -4 -5 -10
3 -16 10 -6 6 -7 -10 -3 -21 7 -23 5 -19 -19 3 -14 1 -26 -3 -26 -5 0 -9 13
-9 28 0 16 -7 37 -16 48 -8 10 -12 12 -8 4 4 -8 -8 -1 -28 16 -20 18 -50 40
-66 50 -17 9 -30 25 -29 35 1 13 5 14 18 6 10 -6 17 -16 16 -21 -1 -6 7 -11
18 -12 11 0 35 -5 54 -9 48 -10 33 6 -42 49 -105 58 -150 127 -138 207 22 139
160 252 381 312 129 35 130 36 335 32 129 -2 197 -8 240 -20z m-725 -39 c0 -2
-24 -18 -53 -34 -29 -17 -80 -54 -113 -83 -32 -30 -50 -42 -39 -29 49 61 205
172 205 146z m-915 -58 c172 -28 343 -142 397 -265 16 -37 19 -60 15 -123 -5
-88 -16 -110 -89 -161 -26 -19 -47 -37 -48 -41 0 -5 -7 -8 -15 -8 -9 0 -18 -7
-21 -15 -4 -8 -9 -13 -13 -10 -12 7 -81 -15 -81 -25 0 -14 6 -13 43 6 l32 17
-25 -27 -25 -27 28 10 c16 6 38 11 50 10 21 0 21 -1 2 -9 -38 -16 -226 -63
-231 -57 -3 3 9 8 27 12 21 5 27 10 19 15 -8 5 -2 10 18 15 17 3 33 13 36 20
4 12 -6 14 -57 9 -110 -9 -146 -15 -152 -25 -4 -5 -13 -3 -21 6 -9 9 -34 15
-60 15 -54 0 -42 -2 -119 20 -36 10 -63 14 -60 9 8 -12 -30 -12 -53 0 -9 5
-39 18 -67 28 -27 11 -50 26 -50 33 0 7 -6 15 -14 18 -9 3 -11 0 -6 -8 6 -9 3
-9 -14 -1 -35 19 -24 -2 15 -27 19 -12 32 -27 29 -32 -8 -13 2 -13 27 1 16 9
19 8 13 -2 -6 -9 -3 -11 9 -6 10 4 15 3 11 -4 -4 -5 -16 -7 -28 -4 -20 5 -20
5 -4 -5 10 -7 21 -9 24 -6 3 3 14 1 24 -4 12 -7 19 -6 22 3 3 8 11 4 22 -11
16 -22 61 -47 78 -44 4 1 7 -2 7 -8 0 -16 -36 -12 -50 5 -7 9 -21 13 -31 10
-11 -4 -45 8 -86 31 -75 40 -102 60 -65 49 34 -10 27 -1 -33 38 -30 20 -59 47
-66 59 -11 21 -10 21 17 -4 26 -23 75 -34 74 -16 -1 9 -70 78 -70 70 0 -3 12
-18 26 -33 14 -15 21 -29 16 -33 -16 -9 -62 52 -62 82 0 15 -11 45 -24 68 -17
30 -22 53 -20 85 2 24 4 55 5 69 1 14 4 19 6 12 3 -7 21 9 43 40 117 161 340
224 625 176z m400 -200 l16 -33 -20 25 c-20 24 -26 40 -16 40 2 0 12 -15 20
-32z m1643 -23 c-3 -3 -9 2 -12 12 -6 14 -5 15 5 6 7 -7 10 -15 7 -18z m-1385
0 c-3 -9 -8 -14 -10 -11 -3 3 -2 9 2 15 9 16 15 13 8 -4z m1364 -47 c-3 -7 -5
-2 -5 12 0 14 2 19 5 13 2 -7 2 -19 0 -25z m-1357 -11 c0 -26 34 -93 63 -124
30 -34 5 -28 -27 6 -35 37 -75 164 -46 146 6 -3 10 -16 10 -28z m-24 -45 c-4
-3 -12 0 -19 7 -9 9 -9 14 3 21 11 7 16 5 18 -6 2 -9 1 -18 -2 -22z m-194 -39
c-3 -16 -7 -22 -10 -15 -4 13 4 42 11 42 2 0 2 -12 -1 -27z m1538 -50 c0 -20
-3 -24 -11 -16 -7 7 -9 19 -6 27 10 24 17 19 17 -11z m-1546 -9 c4 -9 2 -13
-5 -8 -8 4 -9 -1 -5 -17 6 -19 5 -21 -4 -7 -5 9 -7 23 -4 32 8 20 10 20 18 0z
m-1134 -14 c0 -5 -4 -10 -10 -10 -5 0 -10 5 -10 10 0 6 5 10 10 10 6 0 10 -4
10 -10z m1120 -50 c0 -5 -5 -10 -11 -10 -5 0 -7 5 -4 10 3 6 8 10 11 10 2 0 4
-4 4 -10z m325 -57 c4 -38 20 -101 37 -141 17 -41 31 -84 31 -98 0 -13 2 -22
6 -20 3 2 7 -19 9 -47 2 -28 8 -59 13 -70 18 -32 0 -32 -30 1 -28 33 -33 52
-82 331 -11 68 -12 111 0 111 5 0 12 -30 16 -67z m955 13 c0 -11 -19 -15 -25
-6 -3 5 1 10 9 10 9 0 16 -2 16 -4z m-1200 -23 c3 -3 5 -111 6 -241 1 -130 -2
-217 -6 -192 l-7 45 -1 -56 -2 -56 -92 -6 c-94 -7 -181 -24 -129 -26 13 -1 22
-4 19 -7 -9 -8 -78 7 -78 18 0 5 8 7 18 4 12 -4 26 1 37 14 10 11 14 20 10 20
-5 0 3 12 17 28 51 56 76 151 78 305 0 9 7 17 16 17 13 0 15 11 12 67 -2 47 1
68 9 68 6 0 14 3 18 7 7 7 65 0 75 -9z m219 -46 c1 -10 -3 -16 -7 -13 -16 10
-36 -13 -49 -56 -17 -57 -16 -87 2 -94 9 -4 15 -19 15 -38 0 -42 41 -162 79
-232 16 -30 24 -54 19 -54 -11 0 -121 17 -166 26 l-24 5 4 174 c1 96 0 167 -5
157 -4 -9 -5 -2 -2 18 4 19 9 59 12 88 6 58 17 68 71 67 17 0 32 4 33 10 1 14
17 -36 18 -58z m-349 49 c0 -2 -8 -10 -17 -17 -16 -13 -17 -12 -4 4 13 16 21
21 21 13z m181 -173 c-1 -92 -4 -169 -7 -172 -2 -2 -4 76 -4 174 0 98 3 175 6
172 4 -4 6 -82 5 -174z m1015 128 c-9 -14 -162 -34 -202 -27 -50 10 -38 17 48
26 105 11 160 11 154 1z m-1231 -73 c-8 -39 -25 -59 -32 -39 -5 11 -7 11 -14
0 -7 -12 -9 -12 -9 -1 0 12 49 72 58 72 2 0 1 -15 -3 -32z m385 22 c0 -5 -9
-10 -21 -10 -11 0 -17 5 -14 10 3 6 13 10 21 10 8 0 14 -4 14 -10z m194 -7
c11 4 16 1 16 -9 0 -11 -6 -15 -20 -11 -11 3 -20 0 -20 -6 0 -7 -4 -6 -9 2 -5
8 -7 21 -4 28 4 11 8 12 13 2 5 -6 15 -9 24 -6z m766 -43 c-4 -15 -14 -38 -21
-51 l-14 -24 -3 33 c-2 17 -7 32 -13 32 -17 0 -9 38 9 42 37 8 51 -2 42 -32z
m-1339 -40 c-5 -24 -8 -64 -6 -89 2 -41 2 -42 -5 -11 -4 19 -8 29 -9 21 0 -8
-3 -12 -6 -10 -2 3 3 35 11 73 9 37 18 65 20 63 3 -2 0 -24 -5 -47z m-1041 26
c0 -7 -11 -16 -25 -18 -27 -6 -32 1 -13 20 16 16 38 15 38 -2z m414 -1 c3 -8
1 -15 -4 -15 -6 0 -10 7 -10 15 0 8 2 15 4 15 2 0 6 -7 10 -15z m1006 -6 c0
-5 -15 -9 -32 -9 -20 0 -28 3 -21 8 18 11 53 12 53 1z m-960 -14 c0 -9 -6 -12
-15 -9 -8 4 -12 10 -9 15 8 14 24 10 24 -6z m63 8 c-13 -2 -23 -9 -23 -14 0
-5 -7 -9 -15 -9 -8 0 -15 7 -15 15 0 11 10 15 38 14 23 -1 28 -3 15 -6z m2161
-26 c4 -19 3 -26 -4 -22 -5 3 -10 18 -10 32 0 32 5 28 14 -10z m-2044 13 c-14
-4 -38 -8 -55 -8 -29 0 -29 0 -5 8 14 4 39 8 55 8 29 0 29 0 5 -8z m344 -15
c-23 -17 -31 -18 -39 -5 -3 6 3 10 14 10 11 0 23 5 26 11 4 6 10 8 13 5 3 -4
-3 -13 -14 -21z m-584 -13 c0 -15 -2 -15 -10 -2 -13 20 -13 33 0 25 6 -3 10
-14 10 -23z m1165 18 c-3 -5 -12 -10 -18 -10 -7 0 -6 4 3 10 19 12 23 12 15 0z
m-571 -49 c-10 -17 -22 -31 -26 -31 -5 0 2 15 14 34 28 42 37 39 12 -3z m-584
-19 c3 -3 -6 -3 -21 0 -23 4 -25 2 -21 -25 4 -22 1 -28 -9 -25 -16 5 -23 32
-15 54 4 10 14 13 33 8 16 -4 30 -9 33 -12z m2316 -48 c-4 -14 -9 -24 -12 -21
-3 2 -2 17 2 31 3 15 9 25 11 22 3 -3 2 -17 -1 -32z m-2756 -24 c0 -5 -7 -7
-15 -4 -8 4 -12 10 -9 15 6 11 24 2 24 -11z m1484 -35 c5 -22 4 -26 -4 -15 -5
8 -10 24 -10 34 0 26 6 18 14 -19z m1253 -4 c-6 -16 -19 -32 -28 -34 -16 -4
-15 -1 4 29 27 42 39 44 24 5z m-1791 -11 c8 0 14 -7 14 -15 0 -8 -4 -15 -10
-15 -5 0 -10 -18 -10 -40 0 -22 -4 -40 -10 -40 -5 0 -10 16 -10 36 0 28 -3 35
-15 30 -19 -7 -19 -6 2 35 9 18 18 28 21 21 2 -7 10 -12 18 -12z m94 -14 c0
-2 -13 -20 -30 -41 -16 -21 -30 -35 -30 -31 0 7 52 76 58 76 1 0 2 -2 2 -4z
m227 -83 c-2 -16 -4 -5 -4 22 0 28 2 40 4 28 2 -13 2 -35 0 -50z m435 5 c2
-20 0 -34 -4 -32 -4 3 -8 -5 -8 -18 0 -19 -2 -20 -10 -8 -9 13 -11 13 -20 0
-19 -29 -10 9 10 45 11 20 18 40 15 46 -4 5 -3 15 2 22 8 13 9 10 15 -55z
m704 35 c3 -10 9 -25 13 -33 11 -24 1 -52 -16 -46 -8 3 -19 6 -24 6 -5 0 -9
20 -9 45 0 34 4 45 15 45 9 0 18 -8 21 -17z m-1186 -94 c0 -15 5 -19 15 -15 8
3 15 1 15 -4 0 -6 -9 -10 -20 -10 -11 0 -20 -3 -20 -8 0 -4 20 -6 45 -4 38 3
44 2 39 -12 -7 -19 -16 -20 -31 -5 -22 22 -58 -1 -88 -58 -17 -31 -37 -59 -45
-61 -11 -4 -9 2 5 19 15 18 11 16 -16 -6 -20 -17 -34 -32 -33 -34 2 -2 10 2
19 9 19 16 19 1 0 -24 -8 -11 -15 -14 -15 -8 0 7 -6 12 -14 12 -17 0 -28 -37
-14 -46 6 -4 5 -10 -2 -18 -9 -8 -14 -8 -17 2 -3 7 -20 33 -39 57 -18 24 -29
47 -24 50 6 3 10 -1 10 -10 0 -15 1 -15 17 0 14 14 14 18 2 26 -8 5 -18 9 -24
9 -5 0 -3 5 5 10 12 8 11 10 -7 10 -13 0 -23 6 -23 14 0 8 -8 16 -17 18 -26 6
89 30 177 37 80 6 98 22 65 55 -15 15 -14 16 9 16 20 0 26 -5 26 -21z m-147 4
c-7 -2 -19 -2 -25 0 -7 3 -2 5 12 5 14 0 19 -2 13 -5z m315 -6 c-7 -8 -20 -12
-30 -9 -11 2 -18 -1 -18 -9 0 -10 -3 -10 -12 -1 -17 17 5 32 45 32 23 0 26 -2
15 -13z m97 -8 c25 -6 42 -16 39 -21 -3 -5 -11 -5 -18 1 -7 6 -16 8 -19 4 -4
-3 -12 -1 -19 4 -7 6 -22 13 -33 16 -11 2 -14 5 -7 6 7 0 33 -4 57 -10z m1098
5 c-7 -3 -9 -12 -6 -20 3 -8 0 -14 -5 -14 -6 0 -17 -7 -26 -15 -8 -9 -36 -19
-61 -24 -45 -8 -45 -8 -29 10 20 22 8 25 -18 5 -10 -7 -15 -16 -11 -19 3 -4 1
-7 -5 -7 -7 0 -12 5 -12 11 0 5 -4 8 -9 5 -5 -4 -7 3 -4 14 3 11 9 17 14 15
10 -7 120 23 134 36 5 5 18 9 30 8 11 0 15 -3 8 -5z m-1018 -34 c3 -6 -1 -7
-9 -4 -18 7 -21 14 -7 14 6 0 13 -4 16 -10z m115 0 c0 -5 -7 -7 -15 -4 -8 4
-15 8 -15 10 0 2 7 4 15 4 8 0 15 -4 15 -10z m660 -4 c0 -3 -4 -8 -10 -11 -5
-3 -10 -1 -10 4 0 6 5 11 10 11 6 0 10 -2 10 -4z m-1020 -16 c0 -5 -4 -10 -10
-10 -5 0 -10 5 -10 10 0 6 5 10 10 10 6 0 10 -4 10 -10z m135 -10 c40 -8 69
-21 88 -38 37 -35 101 -39 93 -7 -4 16 0 21 14 21 14 0 20 -7 20 -24 0 -19 4
-22 19 -17 53 16 264 -138 356 -259 31 -41 36 -54 30 -82 -5 -28 -2 -38 20
-58 19 -18 25 -33 25 -65 0 -22 -3 -41 -6 -41 -3 0 -18 9 -33 19 -15 11 -60
38 -101 60 -41 22 -72 41 -68 41 3 0 -16 23 -44 51 -44 45 -54 50 -80 45 -17
-3 -49 -6 -71 -6 -38 0 -39 -1 -21 -14 17 -13 12 -13 -36 -1 -69 18 -208 35
-278 35 -46 0 -53 3 -50 18 2 10 -6 22 -22 29 -24 12 -23 12 13 8 28 -4 37 -1
37 10 0 8 24 31 54 50 69 44 73 51 49 83 -25 34 -50 43 -34 13 16 -30 7 -26
-28 12 -19 20 -29 38 -25 49 3 10 -2 28 -10 40 -11 16 -16 18 -16 7 0 -8 5
-20 12 -27 9 -9 9 -12 1 -12 -18 0 -25 37 -13 60 7 13 18 19 28 16 9 -2 44
-10 77 -16z m279 13 c4 -5 29 -13 54 -19 l47 -11 -57 1 c-31 0 -55 3 -52 7 2
4 -4 12 -13 18 -15 9 -15 10 -2 11 9 0 19 -3 23 -7z m640 -27 c-7 -18 -30 -23
-79 -16 l-40 6 55 11 c30 6 58 11 62 12 4 0 5 -5 2 -13z m-664 -6 c0 -5 -4
-10 -10 -10 -5 0 -10 5 -10 10 0 6 5 10 10 10 6 0 10 -4 10 -10z m163 -7 c-7
-2 -19 -2 -25 0 -7 3 -2 5 12 5 14 0 19 -2 13 -5z m-2545 -55 c-3 -18 0 -40 6
-50 11 -19 3 -34 -13 -23 -12 7 -14 47 -5 83 9 33 17 27 12 -10z m2770 25
c-10 -2 -28 -2 -40 0 -13 2 -5 4 17 4 22 1 32 -1 23 -4z m-757 -13 c5 0 9 -4
9 -10 0 -16 -26 -12 -41 7 -12 15 -12 16 4 10 10 -4 23 -7 28 -7z m491 -7 c28
-6 50 -22 171 -133 39 -36 65 -56 57 -45 -23 31 -101 103 -142 132 -21 14 -38
27 -38 28 0 1 30 -2 67 -7 38 -5 96 -8 130 -6 60 3 62 2 42 -13 -13 -9 -19
-21 -15 -28 4 -7 2 -10 -5 -9 -6 2 -14 -3 -17 -11 -3 -10 0 -11 9 -5 12 7 12
5 0 -9 -11 -14 -11 -17 0 -17 11 0 11 -2 1 -8 -7 -5 -12 -22 -10 -38 4 -60
-11 -59 -76 4 -33 33 -92 81 -131 106 -38 25 -79 53 -90 62 l-20 15 20 -6 c11
-4 32 -9 47 -12z m283 -4 c11 -16 2 -17 -25 -2 -24 12 -24 13 -3 13 12 0 25
-5 28 -11z m-2761 -164 c1 -9 7 -20 12 -23 5 -4 10 -13 12 -21 2 -8 -9 -3 -26
10 -23 19 -27 27 -18 41 12 19 16 18 20 -7z m-46 -41 c2 -11 -6 -28 -17 -38
-14 -13 -18 -26 -14 -54 3 -30 -1 -42 -22 -64 -14 -16 -35 -28 -45 -28 -21 0
-27 19 -11 36 5 5 16 43 26 84 10 41 19 77 21 80 1 3 15 5 31 5 20 -1 29 -7
31 -21z m2847 -22 c-6 -7 -34 29 -34 43 0 6 9 -1 20 -14 11 -13 17 -26 14 -29z
m-37 -8 c-4 -3 -12 5 -18 18 -12 22 -12 22 6 6 10 -10 15 -20 12 -24z m1905
-24 c3 -13 0 -20 -9 -20 -8 0 -14 9 -14 20 0 11 4 20 9 20 5 0 11 -9 14 -20z
m-4719 -15 c-4 -8 -8 -15 -10 -15 -2 0 -4 7 -4 15 0 8 4 15 10 15 5 0 7 -7 4
-15z m3036 -20 c0 -8 4 -15 10 -15 5 0 7 -7 4 -15 -5 -12 2 -15 32 -14 22 1
31 3 22 6 -11 3 -18 14 -18 30 l0 26 23 -26 c23 -26 64 -40 152 -52 60 -8 126
-25 140 -37 16 -14 -86 -8 -182 11 -62 12 -96 14 -102 8 -7 -7 -17 -5 -29 6
-10 9 -29 17 -43 17 -31 0 -64 20 -34 20 14 0 16 3 7 8 -7 5 -10 16 -6 25 8
21 24 22 24 2z m-829 -15 c46 -6 119 -20 162 -32 l78 -21 -5 -39 c-3 -21 -9
-56 -12 -78 -6 -44 -26 -56 -67 -41 -14 5 -81 20 -149 32 -98 17 -145 21 -233
16 -132 -7 -273 -33 -297 -54 -17 -15 -18 -15 -19 3 -1 17 -2 17 -6 2 -2 -10
-9 -18 -14 -18 -15 0 -11 12 13 37 l21 23 -22 0 c-22 0 -25 -4 -36 -53 -3 -18
-2 -26 4 -23 5 4 -1 -35 -15 -85 -13 -50 -24 -95 -24 -101 0 -13 36 31 55 69
10 18 15 22 15 11 0 -9 -5 -20 -10 -23 -6 -4 -8 -11 -5 -16 3 -5 -3 -18 -14
-30 -11 -12 -17 -27 -14 -33 3 -6 2 -8 -2 -3 -5 4 -20 -3 -33 -15 l-25 -23 6
38 c6 37 5 38 -21 35 -30 -3 -30 -3 -16 90 5 34 9 42 23 37 10 -3 25 3 36 15
10 11 21 18 24 15 4 -2 8 17 9 42 1 38 -1 43 -12 34 -26 -21 -27 6 -3 33 l24
26 -5 -28 c-3 -19 -1 -24 6 -17 6 6 12 25 14 42 1 17 5 30 9 28 3 -3 4 -16 1
-30 -6 -36 11 -31 42 13 27 37 27 37 20 7 -12 -51 6 -20 25 42 l17 58 85 11
c112 15 266 16 370 4z m599 -45 c14 -19 14 -19 -2 -6 -10 7 -18 18 -18 24 0 6
1 8 3 6 1 -2 9 -13 17 -24z m1960 5 c0 -11 -7 -20 -15 -20 -15 0 -21 21 -8 33
12 13 23 7 23 -13z m-4380 -5 c0 -9 6 -12 15 -9 8 4 15 1 15 -5 0 -6 12 -17
28 -25 23 -13 24 -15 7 -17 -24 -2 -25 -2 -50 3 -12 2 -19 -2 -17 -9 3 -17
-15 -17 -20 -1 -5 14 -30 -6 -41 -32 -4 -12 -6 -12 -6 2 -1 9 3 20 9 23 5 3
14 24 20 45 10 39 40 57 40 25z m4055 -5 c3 -6 -4 -10 -17 -10 -18 0 -20 2 -8
10 19 12 18 12 25 0z m-3922 -30 c-6 -24 -5 -23 -38 -8 -24 11 -25 13 -8 19
35 14 51 10 46 -11z m-543 0 c0 -5 -7 -10 -16 -10 -14 0 -16 -8 -10 -47 5 -41
4 -46 -8 -33 -25 26 -24 86 2 93 29 8 32 7 32 -3z m2534 4 c9 -3 13 -11 9 -18
-4 -6 -8 -15 -8 -20 0 -5 -7 -11 -15 -13 -13 -4 -13 -3 0 6 10 7 11 11 3 11
-7 0 -13 9 -13 20 0 22 1 23 24 14z m1541 -3 c-10 -17 9 -19 115 -10 96 8 218
3 206 -8 -2 -3 -48 -11 -102 -18 -53 -8 -100 -19 -104 -25 -5 -8 -13 -6 -25 7
-11 10 -20 13 -22 7 -2 -6 -22 -8 -53 -4 -38 5 -50 3 -50 -7 0 -7 -4 -13 -10
-13 -5 0 -10 7 -10 15 0 11 -11 15 -37 15 -28 0 -34 3 -23 10 8 5 30 10 48 10
19 0 32 5 32 13 0 8 4 7 10 -3 8 -13 10 -12 10 3 0 9 5 17 11 17 5 0 8 -4 4
-9z m-2355 -7 c0 -8 -19 -13 -24 -6 -3 5 1 9 9 9 8 0 15 -2 15 -3z m2780 -1
c-1 -25 -19 -35 -46 -25 -26 9 -26 11 -6 11 12 1 22 6 22 11 0 6 7 10 15 10 8
0 15 -3 15 -7z m-4459 -36 c-13 -13 -26 -3 -16 12 3 6 11 8 17 5 6 -4 6 -10
-1 -17z m1534 3 c-3 -5 -11 -10 -16 -10 -6 0 -7 5 -4 10 3 6 11 10 16 10 6 0
7 -4 4 -10z m1478 -33 c-2 -4 -8 -5 -13 -2 -5 3 -4 -7 1 -22 18 -54 36 -143
29 -143 -14 0 -38 37 -54 84 -21 65 -20 81 6 106 21 19 23 20 29 3 4 -10 4
-21 2 -26z m671 24 c116 -5 150 -9 154 -20 4 -12 -14 -13 -114 -8 -66 4 -168
12 -229 18 -137 14 -178 33 -50 23 50 -3 157 -9 239 -13z m-3334 -11 c0 -5 -5
-10 -11 -10 -5 0 -7 5 -4 10 3 6 8 10 11 10 2 0 4 -4 4 -10z m90 -5 c16 -9 19
-14 9 -15 -8 0 -24 7 -35 15 -24 18 -7 19 26 0z m-450 -16 c0 -5 -7 -9 -15 -9
-15 0 -20 12 -9 23 8 8 24 -1 24 -14z m3920 11 c0 -5 -7 -10 -16 -10 -8 0 -12
5 -9 10 3 6 10 10 16 10 5 0 9 -4 9 -10z m-3304 -30 c43 -11 131 -30 194 -41
113 -20 148 -33 119 -44 -25 -10 -243 33 -351 69 -118 39 -94 50 38 16z m3444
-2 c0 -12 8 -30 17 -40 29 -32 14 -157 -25 -200 -25 -30 -32 -21 -32 42 0 53
2 60 20 60 22 0 24 16 11 108 -4 28 -4 52 1 52 4 0 8 -10 8 -22z m-4032 -14
c12 -8 22 -12 22 -8 0 3 6 1 14 -5 8 -7 13 -19 11 -29 -1 -9 0 -11 2 -4 3 10
13 12 31 7 15 -3 37 -6 50 -6 19 1 22 -4 19 -24 -2 -14 -6 -25 -10 -25 -4 0
-12 0 -18 0 -5 0 -8 4 -5 8 3 5 -9 6 -26 4 -23 -4 -36 1 -54 22 -14 14 -32 26
-41 26 -13 0 -53 35 -53 47 0 9 38 1 58 -13z m147 6 c3 -6 -1 -7 -9 -4 -18 7
-21 14 -7 14 6 0 13 -4 16 -10z m147 -15 c2 3 5 -2 5 -10 0 -8 -3 -13 -6 -10
-2 3 -13 -36 -23 -86 -19 -93 -35 -123 -57 -109 -16 9 -10 30 31 118 18 38 28
73 25 88 -3 18 -1 22 8 14 6 -5 14 -8 17 -5z m15 -67 c-3 -8 -6 -5 -6 6 -1 11
2 17 5 13 3 -3 4 -12 1 -19z m658 12 c3 -5 -1 -10 -10 -10 -9 0 -13 5 -10 10
3 6 8 10 10 10 2 0 7 -4 10 -10z m3032 -27 c-3 -10 -5 -4 -5 12 0 17 2 24 5
18 2 -7 2 -21 0 -30z m-3697 -26 c0 -7 -7 -22 -15 -33 -13 -17 -13 -16 -3 14
13 34 18 40 18 19z m2416 -160 c-3 -67 -5 -123 -6 -125 0 -2 -7 4 -16 12 -12
12 -15 37 -13 118 1 57 4 118 7 137 l5 34 14 -27 c12 -22 13 -55 9 -149z
m-2526 77 c0 -8 -80 39 -93 55 -6 7 12 -1 41 -19 28 -17 52 -34 52 -36z m428
40 c36 -10 26 -49 -12 -49 -17 0 -31 6 -34 15 -4 12 -2 13 9 3 7 -7 20 -13 29
-13 9 0 4 7 -12 18 -44 27 -34 40 20 26z m385 -81 c-22 -119 -57 -175 -90
-142 -11 11 -2 70 14 92 5 7 15 32 22 57 16 54 27 70 51 70 17 0 17 -5 3 -77z
m499 -85 c-8 -8 -9 -4 -5 13 4 13 8 18 11 10 2 -7 -1 -18 -6 -23z m3038 -102
c0 -65 -2 -76 -17 -77 -17 -1 -17 -2 0 -6 13 -4 17 -15 17 -58 0 -68 -17 -88
-60 -73 -33 11 -40 21 -12 16 20 -3 21 9 23 172 1 110 10 140 35 115 10 -9 14
-38 14 -89z m-3113 88 c-3 -3 -12 -4 -19 -1 -8 3 -5 6 6 6 11 1 17 -2 13 -5z
m-310 -20 c-3 -3 -12 -4 -19 -1 -8 3 -5 6 6 6 11 1 17 -2 13 -5z m383 -25
c-12 -21 -29 -26 -26 -6 3 21 17 38 27 32 5 -4 5 -14 -1 -26z m-190 11 c-8 -5
-22 -9 -30 -9 -10 0 -8 3 5 9 27 12 43 12 25 0z m-160 -10 c-58 -13 -154 -20
-144 -10 8 8 68 15 149 17 28 1 28 1 -5 -7z m3280 -215 c10 -12 10 -15 -4 -15
-9 0 -16 7 -16 15 0 8 2 15 4 15 2 0 9 -7 16 -15z m-1788 -49 c7 4 8 2 4 -5
-9 -13 -26 -5 -25 12 0 9 2 8 6 -1 2 -6 10 -9 15 -6z m-52 0 c0 -2 -9 -6 -20
-9 -11 -3 -18 -1 -14 4 5 9 34 13 34 5z m418 -68 c-4 -12 -38 -21 -38 -9 0 12
12 21 28 21 7 0 12 -5 10 -12z m1609 6 c-3 -3 -12 -4 -19 -1 -8 3 -5 6 6 6 11
1 17 -2 13 -5z m-2082 -24 c3 -5 -3 -10 -15 -10 -12 0 -18 5 -15 10 3 6 10 10
15 10 5 0 12 -4 15 -10z m-68 -42 c-3 -7 -5 -2 -5 12 0 14 2 19 5 13 2 -7 2
-19 0 -25z m-50 -60 c-3 -7 -5 -2 -5 12 0 14 2 19 5 13 2 -7 2 -19 0 -25z
m1586 -39 c3 -23 11 -45 17 -49 6 -4 14 -33 17 -64 5 -49 3 -59 -15 -76 -25
-24 -42 -26 -42 -5 0 8 6 15 13 15 18 0 18 17 5 117 -5 46 -14 80 -19 77 -11
-6 -11 -1 -3 20 10 25 21 10 27 -35z m-1031 -56 c-4 -22 -4 -22 -28 4 -13 14
-24 31 -24 37 0 6 4 5 9 -3 12 -18 31 -5 32 22 1 16 3 14 8 -8 4 -16 5 -40 3
-52z m-522 37 c0 -11 -4 -20 -9 -20 -5 0 -7 9 -4 20 3 11 7 20 9 20 2 0 4 -9
4 -20z m353 -3 c4 3 12 -8 18 -25 6 -18 15 -32 20 -32 5 0 9 -9 9 -20 0 -18
-3 -19 -20 -10 -11 6 -20 21 -20 34 0 13 -9 31 -20 41 -11 10 -20 23 -20 29 0
6 7 3 14 -6 7 -10 16 -15 19 -11z m234 -9 c-3 -8 -6 -5 -6 6 -1 11 2 17 5 13
3 -3 4 -12 1 -19z m-167 -38 c0 -5 -2 -10 -4 -10 -3 0 -8 5 -11 10 -3 6 -1 10
4 10 6 0 11 -4 11 -10z m113 -50 c6 0 2 -6 -9 -14 -24 -18 -27 -15 -17 20 5
21 8 24 11 12 2 -10 8 -18 15 -18z m-945 0 c13 -7 7 -9 -25 -10 -24 0 -43 4
-43 8 0 12 50 13 68 2z m62 0 c0 -5 -4 -10 -10 -10 -5 0 -10 -5 -10 -10 0 -6
14 -9 33 -7 17 2 24 2 15 0 -11 -3 -18 -14 -18 -29 0 -13 -5 -24 -11 -24 -5 0
-8 4 -4 9 3 5 -1 16 -9 23 -7 8 -17 24 -20 36 -6 18 -3 22 13 22 12 0 21 -4
21 -10z m80 -20 c0 -5 -5 -10 -11 -10 -5 0 -7 5 -4 10 3 6 8 10 11 10 2 0 4
-4 4 -10z m-344 -209 c7 -43 19 -54 27 -23 2 9 4 5 3 -9 -2 -30 12 -46 45 -51
14 -2 25 -11 27 -22 4 -17 0 -17 -42 7 -26 14 -43 21 -40 15 5 -8 -1 -9 -17
-4 -13 3 -37 9 -54 12 -40 7 -105 26 -105 31 0 2 9 21 19 42 19 36 22 38 75
40 l56 2 6 -40z m191 -47 c-2 -3 -23 -7 -46 -10 -36 -4 -41 -2 -41 16 0 17 6
20 40 20 34 0 40 3 42 23 1 12 3 8 5 -11 3 -19 2 -36 0 -38z m-27 46 c0 -5 -5
-10 -11 -10 -5 0 -7 5 -4 10 3 6 8 10 11 10 2 0 4 -4 4 -10z m-320 -90 c0 -4
-7 -10 -15 -14 -10 -4 -15 1 -15 14 0 13 5 18 15 14 8 -4 15 -10 15 -14z m287
14 c-3 -3 -12 -4 -19 -1 -8 3 -5 6 6 6 11 1 17 -2 13 -5z m248 -4 c-3 -5 -13
-10 -21 -10 -8 0 -12 5 -9 10 3 6 13 10 21 10 8 0 12 -4 9 -10z m-71 -10 c-30
-12 -44 -35 -17 -28 27 7 47 -6 40 -25 -8 -21 -71 -7 -75 16 -5 26 16 47 47
46 25 0 25 -1 5 -9z m88 -37 c6 -29 -15 -73 -34 -73 -15 0 -18 9 -18 45 0 41
2 45 24 45 15 0 26 -7 28 -17z m-262 -13 c0 -5 -7 -10 -15 -10 -8 0 -15 5 -15
10 0 6 7 10 15 10 8 0 15 -4 15 -10z m153 -37 c3 -5 1 -17 -4 -28 -4 -11 -8
-15 -8 -8 -1 6 -4 18 -7 27 -6 16 11 23 19 9z m42 -297 c3 -126 6 -232 7 -235
0 -3 0 -15 -1 -26 -4 -35 -22 23 -28 85 -9 98 -13 394 -6 440 l6 45 8 -40 c4
-22 10 -143 14 -269z m-464 257 c-10 -17 -10 -16 -11 3 0 23 13 41 18 25 2 -6
-1 -18 -7 -28z m526 -25 c-3 -8 -6 -5 -6 6 -1 11 2 17 5 13 3 -3 4 -12 1 -19z
m93 -28 c0 -5 -4 -10 -10 -10 -5 0 -10 5 -10 10 0 6 5 10 10 10 6 0 10 -4 10
-10z m180 -94 c0 -2 -8 -10 -17 -17 -16 -13 -17 -12 -4 4 13 16 21 21 21 13z
m-699 -119 c-10 -9 -11 -8 -5 6 3 10 9 15 12 12 3 -3 0 -11 -7 -18z m-74 -169
c-3 -8 -6 -5 -6 6 -1 11 2 17 5 13 3 -3 4 -12 1 -19z m-17 -59 c0 -33 -4 -49
-12 -49 -9 0 -13 18 -13 59 0 46 3 57 13 49 6 -6 12 -32 12 -59z m17 -6 c-3
-10 -5 -4 -5 12 0 17 2 24 5 18 2 -7 2 -21 0 -30z m23 -58 c0 -5 -5 -3 -10 5
-5 8 -10 20 -10 25 0 6 5 3 10 -5 5 -8 10 -19 10 -25z m27 -117 c-3 -7 -5 -2
-5 12 0 14 2 19 5 13 2 -7 2 -19 0 -25z m280 -260 c-3 -8 -6 -5 -6 6 -1 11 2
17 5 13 3 -3 4 -12 1 -19z m-7 -31 c0 -7 -7 -22 -15 -33 -13 -17 -13 -16 -3
14 13 34 18 40 18 19z"/>
<path d="M4650 5481 c0 -6 5 -13 10 -16 6 -3 10 1 10 9 0 9 -4 16 -10 16 -5 0
-10 -4 -10 -9z"/>
<path d="M5316 5475 c-9 -24 -8 -45 3 -45 14 0 22 30 13 47 -8 13 -10 13 -16
-2z"/>
<path d="M4821 5459 c13 -8 97 -13 88 -5 -2 2 -26 6 -53 9 -30 3 -43 1 -35 -4z"/>
<path d="M5173 5463 c9 -2 23 -2 30 0 6 3 -1 5 -18 5 -16 0 -22 -2 -12 -5z"/>
<path d="M5103 5453 c9 -2 25 -2 35 0 9 3 1 5 -18 5 -19 0 -27 -2 -17 -5z"/>
<path d="M5030 5435 c0 -10 10 -15 27 -15 26 0 26 1 7 15 -25 19 -34 19 -34 0z"/>
<path d="M5346 5418 c3 -4 11 -5 19 -1 21 7 19 12 -4 10 -11 0 -18 -5 -15 -9z"/>
<path d="M4376 4765 c-7 -18 4 -24 26 -16 17 6 17 7 -1 18 -15 10 -20 9 -25
-2z"/>
<path d="M4596 4745 c-4 -11 -2 -14 7 -9 8 6 8 3 -1 -9 -16 -20 -8 -37 18 -37
19 0 40 27 40 51 0 10 -3 10 -12 1 -9 -9 -16 -8 -29 4 -15 13 -17 13 -23 -1z"/>
<path d="M4760 4530 c0 -6 -5 -8 -10 -5 -6 3 -13 -1 -17 -10 -9 -25 19 -39 36
-17 9 12 15 14 18 5 7 -20 23 -15 23 7 0 11 -4 20 -9 20 -5 0 -16 3 -25 6 -9
3 -16 1 -16 -6z"/>
<path d="M3887 4163 c-4 -3 -7 -11 -7 -17 0 -6 5 -5 12 2 6 6 9 14 7 17 -3 3
-9 2 -12 -2z"/>
<path d="M1850 5670 c-11 -11 -28 -20 -37 -20 -15 0 -16 2 -3 10 12 8 11 10
-7 10 -19 0 -23 -5 -22 -32 1 -18 3 -26 6 -17 2 11 17 16 44 17 46 2 62 9 54
23 -4 5 -1 9 5 9 6 0 8 5 5 10 -9 15 -23 12 -45 -10z"/>
<path d="M1713 5640 c0 -25 2 -35 4 -22 2 12 2 32 0 45 -2 12 -4 2 -4 -23z"/>
<path d="M1757 5673 c-11 -10 -8 -83 3 -83 6 0 10 20 10 45 0 46 -2 50 -13 38z"/>
<path d="M4218 5553 c7 -3 16 -2 19 1 4 3 -2 6 -13 5 -11 0 -14 -3 -6 -6z"/>
<path d="M1740 5520 c-14 -4 -18 -9 -10 -9 12 -1 12 -4 -3 -15 -16 -12 -15
-14 18 -20 31 -6 51 -26 25 -26 -5 0 -10 -11 -10 -25 0 -14 4 -25 9 -25 8 0 8
-29 -1 -114 l-3 -29 -312 -1 c-171 -1 -315 -5 -319 -9 -4 -4 2 -8 14 -8 12 -1
28 -2 35 -3 6 -1 14 -4 17 -7 6 -8 129 -20 239 -24 54 -1 86 -7 91 -15 5 -9
47 -15 121 -20 l114 -7 -120 -3 -120 -4 90 -6 c50 -3 75 -7 57 -8 -28 -2 -33
-5 -30 -24 2 -17 12 -25 38 -29 l35 -6 -37 -2 c-27 -1 -38 -5 -38 -17 0 -26
20 -54 38 -54 9 0 24 -11 33 -23 14 -19 17 -80 22 -432 4 -225 10 -462 14
-526 6 -115 6 -117 -17 -124 -15 -5 -19 -10 -12 -17 6 -6 8 -17 5 -24 -3 -8 0
-14 7 -14 6 0 8 5 5 11 -5 7 3 9 21 7 26 -3 29 -8 32 -40 3 -32 7 -38 26 -38
21 0 23 -4 19 -37 -5 -51 -11 -66 -23 -58 -7 4 -9 -45 -8 -142 l2 -148 5 110
6 110 8 -165 c5 -91 7 -273 5 -406 -2 -156 1 -241 7 -241 7 0 10 157 10 451 1
448 6 536 31 536 7 0 15 8 18 18 5 14 14 17 36 14 29 -4 42 11 18 21 -7 3 -3
6 10 6 14 1 21 5 16 12 -3 6 -20 9 -38 6 -20 -3 -44 3 -68 17 l-36 21 -6 90
c-6 95 -15 564 -15 825 0 88 4 156 10 158 5 2 9 10 9 18 0 8 9 14 20 14 21 0
37 38 27 65 -4 8 -2 17 3 20 6 4 10 15 10 26 0 15 7 19 33 20 17 1 43 5 57 10
17 5 -1 8 -57 6 -94 -2 -102 7 -13 16 63 7 88 16 114 42 12 12 20 13 35 6 20
-11 157 2 218 20 18 6 37 8 42 5 5 -4 11 -1 13 4 2 6 22 12 45 13 25 1 37 5
30 9 -8 5 -5 8 8 8 11 0 33 11 49 24 29 24 29 24 7 35 -12 7 -27 9 -34 4 -8
-5 -4 -9 13 -14 l25 -7 -23 -1 c-13 -1 -48 -8 -78 -17 -45 -13 -67 -13 -146
-3 -51 6 -126 12 -165 12 -40 0 -70 3 -68 7 3 4 -36 6 -85 5 l-90 -4 0 30 c0
25 4 29 28 29 15 0 54 8 87 18 l59 18 -46 22 c-26 12 -65 25 -87 28 -35 6 -41
10 -41 30 0 20 -5 24 -27 23 -16 -1 -39 -5 -53 -9z m94 -59 c3 -4 26 -14 52
-21 l46 -13 -27 -11 c-16 -7 -43 -10 -62 -8 -27 4 -31 7 -22 18 9 11 8 18 -1
29 -8 9 -9 15 -2 15 6 0 13 -4 16 -9z m289 -148 c-7 -2 -19 -2 -25 0 -7 3 -2
5 12 5 14 0 19 -2 13 -5z m107 -23 c-14 -4 -50 -8 -80 -8 l-55 1 45 7 c25 4
61 7 80 8 31 0 32 -1 10 -8z m-407 -127 c-7 -2 -21 -2 -30 0 -10 3 -4 5 12 5
17 0 24 -2 18 -5z m10 -80 c-13 -2 -35 -2 -50 0 -16 2 -5 4 22 4 28 0 40 -2
28 -4z m-36 -275 c-2 -18 -4 -4 -4 32 0 36 2 50 4 33 2 -18 2 -48 0 -65z m-24
-8 c10 -149 17 -898 8 -840 -8 48 -22 935 -16 928 2 -2 5 -41 8 -88z"/>
<path d="M1576 5454 c-73 -26 -84 -54 -21 -54 19 0 35 6 38 15 3 7 23 23 44
34 l38 20 -30 0 c-16 0 -48 -7 -69 -15z"/>
<path d="M1695 5390 c3 -5 8 -10 11 -10 2 0 4 5 4 10 0 6 -5 10 -11 10 -5 0
-7 -4 -4 -10z"/>
<path d="M968 5343 c-82 -5 -90 -22 -23 -48 39 -14 97 -18 405 -22 385 -5 372
-7 354 41 -9 22 -74 22 -74 0 0 -15 -19 -16 -182 -11 -101 3 -194 9 -208 13
l-25 8 25 7 c16 5 2 7 -40 6 -36 0 -87 2 -115 5 -27 3 -80 3 -117 1z"/>
<path d="M2180 5330 c0 -5 5 -10 10 -10 6 0 10 5 10 10 0 6 -4 10 -10 10 -5 0
-10 -4 -10 -10z"/>
<path d="M2518 5333 c7 -3 16 -2 19 1 4 3 -2 6 -13 5 -11 0 -14 -3 -6 -6z"/>
<path d="M1348 5323 c6 -2 18 -2 25 0 6 3 1 5 -13 5 -14 0 -19 -2 -12 -5z"/>
<path d="M1440 5320 c0 -5 7 -10 16 -10 8 0 12 5 9 10 -3 6 -10 10 -16 10 -5
0 -9 -4 -9 -10z"/>
<path d="M1535 5320 c-4 -6 5 -10 20 -10 15 0 24 4 20 10 -3 6 -12 10 -20 10
-8 0 -17 -4 -20 -10z"/>
<path d="M2790 5171 c5 -11 14 -21 18 -23 5 -1 31 -28 58 -59 43 -49 224 -209
237 -209 6 0 -145 152 -240 243 -74 69 -91 81 -73 48z"/>
<path d="M2745 5059 c-75 -11 -197 -40 -192 -46 3 -2 31 3 63 11 33 8 79 18
104 21 42 7 44 7 30 -10 -14 -17 -12 -18 34 -12 27 4 51 9 53 11 7 7 -10 36
-21 35 -6 -1 -38 -5 -71 -10z"/>
<path d="M2460 4983 c-8 -7 -32 -27 -53 -45 -21 -17 -43 -40 -49 -52 -6 -11
12 0 38 25 27 26 67 56 89 68 33 17 36 20 15 18 -14 -1 -32 -7 -40 -14z"/>
<path d="M5915 4851 c3 -6 38 -11 78 -11 75 0 283 -15 376 -26 35 -4 52 -3 48
3 -6 10 -188 28 -395 38 -79 4 -112 3 -107 -4z"/>
<path d="M6745 4762 c4 -4 48 -21 98 -38 51 -17 101 -34 112 -39 17 -8 18 -7
7 7 -7 9 -50 27 -95 41 -98 30 -131 38 -122 29z"/>
<path d="M4031 4585 c0 -11 6 -31 14 -45 13 -22 14 -23 15 -5 0 11 3 31 5 45
l6 25 -12 -25 -12 -25 -7 25 c-7 20 -8 21 -9 5z"/>
<path d="M2480 4529 c0 -5 -5 -7 -12 -3 -7 4 -8 3 -4 -4 4 -6 13 -9 21 -6 8 4
12 10 9 15 -7 12 -14 11 -14 -2z"/>
<path d="M5743 4423 c9 -2 25 -2 35 0 9 3 1 5 -18 5 -19 0 -27 -2 -17 -5z"/>
<path d="M5843 4413 c9 -2 25 -2 35 0 9 3 1 5 -18 5 -19 0 -27 -2 -17 -5z"/>
<path d="M5978 4403 c12 -2 32 -2 45 0 12 2 2 4 -23 4 -25 0 -35 -2 -22 -4z"/>
<path d="M2858 4363 c7 -3 16 -2 19 1 4 3 -2 6 -13 5 -11 0 -14 -3 -6 -6z"/>
<path d="M2905 4350 c11 -5 27 -9 35 -9 9 0 8 4 -5 9 -11 5 -27 9 -35 9 -9 0
-8 -4 5 -9z"/>
<path d="M7038 4348 c5 -5 16 -8 23 -6 8 3 3 7 -10 11 -17 4 -21 3 -13 -5z"/>
<path d="M2968 4333 c7 -3 16 -2 19 1 4 3 -2 6 -13 5 -11 0 -14 -3 -6 -6z"/>
<path d="M3008 4323 c7 -3 16 -2 19 1 4 3 -2 6 -13 5 -11 0 -14 -3 -6 -6z"/>
<path d="M3048 4313 c7 -3 16 -2 19 1 4 3 -2 6 -13 5 -11 0 -14 -3 -6 -6z"/>
<path d="M3125 4299 c16 -5 57 -11 90 -13 60 -5 59 -5 -15 9 -85 15 -119 18
-75 4z"/>
<path d="M3470 4294 c0 -16 9 -18 28 -5 10 6 9 10 -7 14 -14 3 -21 0 -21 -9z"/>
<path d="M7095 4208 c-1 -13 -4 -43 -7 -68 l-7 -45 14 32 c18 40 23 95 10 99
-5 2 -10 -6 -10 -18z"/>
<path d="M2280 4102 c0 -5 10 -17 21 -28 22 -19 22 -19 10 3 -12 24 -31 39
-31 25z"/>
<path d="M2345 4030 c10 -11 20 -20 23 -20 3 0 -3 9 -13 20 -10 11 -20 20 -23
20 -3 0 3 -9 13 -20z"/>
<path d="M2528 3957 c-4 -23 -3 -23 24 -13 29 11 35 21 18 31 -5 3 -10 1 -10
-6 0 -9 -3 -9 -14 0 -11 9 -15 7 -18 -12z"/>
<path d="M2566 3928 c5 -8 2 -9 -9 -5 -22 8 -21 2 0 -23 21 -24 41 -27 22 -3
-11 13 -11 17 -1 20 13 5 7 23 -9 23 -6 0 -7 -5 -3 -12z"/>
<path d="M2632 3893 c8 -11 7 -12 -8 -7 -10 4 -3 -5 16 -20 19 -15 46 -29 60
-32 14 -3 52 -14 85 -24 75 -23 150 -40 167 -39 7 0 -34 13 -92 29 -148 39
-189 58 -196 85 -4 15 -13 23 -24 22 -15 -1 -16 -4 -8 -14z"/>
<path d="M1700 3851 c0 -10 19 -25 25 -20 1 2 -3 10 -11 17 -8 7 -14 8 -14 3z"/>
<path d="M1760 3849 c0 -7 -8 -18 -17 -25 -14 -11 -15 -13 -2 -9 10 4 16 0 16
-9 0 -11 -6 -12 -24 -5 -25 9 -30 1 -10 -20 10 -11 9 -13 -4 -8 -13 4 -15 -1
-10 -31 5 -28 12 -38 28 -40 16 -2 24 3 28 20 9 39 12 138 3 138 -4 0 -8 -5
-8 -11z"/>
<path d="M2840 3770 c0 -5 5 -10 10 -10 6 0 10 5 10 10 0 6 -4 10 -10 10 -5 0
-10 -4 -10 -10z"/>
<path d="M2993 3763 c9 -2 25 -2 35 0 9 3 1 5 -18 5 -19 0 -27 -2 -17 -5z"/>
<path d="M3063 3753 c9 -2 25 -2 35 0 9 3 1 5 -18 5 -19 0 -27 -2 -17 -5z"/>
<path d="M3030 3745 c0 -5 5 -17 10 -25 5 -8 10 -10 10 -5 0 6 -5 17 -10 25
-5 8 -10 11 -10 5z"/>
<path d="M3175 3740 c4 -6 11 -8 16 -5 14 9 11 15 -7 15 -8 0 -12 -5 -9 -10z"/>
<path d="M2826 3724 c-9 -8 -19 -26 -22 -40 -6 -23 -12 -26 -59 -28 -13 -1
-20 -8 -20 -21 0 -13 6 -20 18 -19 9 1 17 -3 17 -8 0 -6 -9 -8 -20 -5 -11 3
-20 1 -20 -3 0 -19 13 -40 25 -40 20 0 25 -39 7 -51 -13 -8 -13 -9 -2 -6 21 5
40 45 41 87 0 19 3 28 6 20 4 -8 13 -21 22 -28 14 -11 14 -11 -1 -6 -28 9 -25
-57 2 -74 12 -7 18 -17 15 -22 -3 -6 3 -10 14 -10 12 0 21 5 21 11 0 5 -4 8
-9 5 -5 -3 -14 1 -21 8 -9 12 -7 17 7 24 10 6 22 10 28 10 5 0 11 5 13 10 2 6
-3 10 -10 9 -7 0 -24 1 -38 2 -24 2 -24 2 -5 13 22 13 74 11 92 -3 7 -7 14 -6
18 1 3 5 16 10 28 10 30 1 62 29 74 65 14 46 6 66 -23 59 -25 -6 -35 10 -11
19 9 4 8 8 -3 16 -10 7 -21 7 -35 -2 -22 -14 -75 -11 -75 4 0 15 -57 10 -74
-7z m39 -54 c-3 -5 -11 -10 -16 -10 -6 0 -7 5 -4 10 3 6 11 10 16 10 6 0 7 -4
4 -10z m-65 -30 c0 -5 -7 -7 -15 -4 -8 4 -15 8 -15 10 0 2 7 4 15 4 8 0 15 -4
15 -10z m-23 -62 c-3 -8 -6 -5 -6 6 -1 11 2 17 5 13 3 -3 4 -12 1 -19z"/>
<path d="M1746 3538 l1 -153 -7 115 c-3 63 -4 -66 -2 -287 2 -222 1 -403 -2
-403 -4 0 -11 12 -16 26 -9 21 -13 24 -25 14 -8 -6 -17 -21 -21 -32 -3 -10
-21 -34 -39 -51 -18 -18 -52 -68 -74 -112 -36 -71 -39 -81 -23 -86 24 -9 27
-6 59 58 15 30 40 68 54 84 14 15 32 43 40 60 7 18 14 28 16 22 3 -8 13 -7 31
3 15 8 38 14 52 15 l25 1 -26 9 c-24 9 -25 12 -18 57 4 26 8 219 8 430 1 357
0 382 -16 382 -16 0 -18 -14 -17 -152z"/>
<path d="M7024 3577 c4 -12 15 -53 25 -92 10 -38 24 -71 30 -73 13 -4 14 10 1
63 -6 25 -5 44 0 49 20 20 9 42 -26 58 -36 16 -36 16 -30 -5z"/>
<path d="M2728 3533 c7 -3 16 -2 19 1 4 3 -2 6 -13 5 -11 0 -14 -3 -6 -6z"/>
<path d="M2912 3506 c-6 -22 -9 -42 -7 -44 7 -8 26 50 22 67 -2 9 -9 -2 -15
-23z"/>
<path d="M2660 3490 c0 -11 4 -20 9 -20 5 0 11 9 14 20 3 13 0 20 -9 20 -8 0
-14 -9 -14 -20z"/>
<path d="M2780 3491 c0 -11 -8 -22 -18 -25 -18 -6 -27 -36 -10 -36 4 0 8 -5 8
-11 0 -5 -4 -7 -10 -4 -6 4 -10 -5 -10 -19 0 -37 13 -32 38 15 23 43 28 84 12
94 -5 3 -10 -3 -10 -14z"/>
<path d="M4913 3493 c9 -2 25 -2 35 0 9 3 1 5 -18 5 -19 0 -27 -2 -17 -5z"/>
<path d="M7121 3441 c44 -33 69 -44 69 -27 0 7 -18 21 -40 30 -52 21 -58 20
-29 -3z"/>
<path d="M5031 3434 c0 -11 3 -14 6 -6 3 7 2 16 -1 19 -3 4 -6 -2 -5 -13z"/>
<path d="M7280 3389 c-8 -13 -15 -17 -23 -11 -19 14 -47 22 -47 13 0 -4 11
-14 25 -21 13 -7 23 -16 23 -19 -1 -3 2 -21 6 -38 9 -39 39 -63 79 -63 35 0
100 60 91 83 -4 13 -120 77 -137 77 -4 0 -11 -9 -17 -21z"/>
<path d="M5031 3344 c0 -11 3 -14 6 -6 3 7 2 16 -1 19 -3 4 -6 -2 -5 -13z"/>
<path d="M6991 3247 c-21 -35 -56 -63 -109 -91 -19 -10 -31 -20 -28 -23 20
-21 166 95 166 132 0 22 -6 18 -29 -18z"/>
<path d="M2812 3143 c-1 -50 -7 -104 -12 -118 -10 -27 -18 -28 -62 -10 -13 5
-18 2 -18 -9 0 -23 57 -25 134 -5 26 7 35 14 28 21 -6 6 -6 19 2 40 9 26 8 32
-9 44 -17 13 -20 13 -27 -3 -6 -17 -7 -17 -7 0 -1 9 -5 17 -11 17 -5 0 -11 26
-13 58 -2 41 -4 32 -5 -35z"/>
<path d="M4982 3150 c0 -19 2 -27 5 -17 2 9 2 25 0 35 -3 9 -5 1 -5 -18z"/>
<path d="M5385 3170 c3 -5 13 -10 21 -10 8 0 12 5 9 10 -3 6 -13 10 -21 10 -8
0 -12 -4 -9 -10z"/>
<path d="M6963 3138 c8 -13 24 -51 37 -86 12 -34 25 -61 27 -59 9 9 -53 167
-65 167 -10 0 -9 -5 1 -22z"/>
<path d="M4550 3120 c0 -5 6 -10 14 -10 8 0 18 5 21 10 3 6 -3 10 -14 10 -12
0 -21 -4 -21 -10z"/>
<path d="M6700 3105 c0 -14 3 -25 8 -25 17 1 95 29 80 29 -9 1 -28 -3 -42 -9
-23 -8 -26 -7 -26 10 0 11 -4 20 -10 20 -5 0 -10 -11 -10 -25z"/>
<path d="M3760 3112 c0 -4 9 -13 20 -20 18 -11 20 -10 20 8 0 13 -7 20 -20 20
-11 0 -20 -3 -20 -8z"/>
<path d="M6850 3084 c0 -3 13 -31 30 -62 16 -31 54 -109 83 -172 35 -75 66
-125 88 -145 l34 -30 -32 35 c-17 19 -50 73 -71 120 -22 47 -58 124 -80 173
-35 75 -52 102 -52 81z"/>
<path d="M6588 3053 c7 -3 16 -2 19 1 4 3 -2 6 -13 5 -11 0 -14 -3 -6 -6z"/>
<path d="M3760 3031 c0 -5 10 -11 23 -15 35 -9 40 -7 27 9 -13 16 -50 21 -50
6z"/>
<path d="M6147 3023 c18 -2 50 -2 70 0 21 2 7 4 -32 4 -38 0 -55 -2 -38 -4z"/>
<path d="M6275 3020 c3 -5 12 -7 20 -3 21 7 19 13 -6 13 -11 0 -18 -4 -14 -10z"/>
<path d="M4973 2940 c0 -41 2 -58 4 -37 2 20 2 54 0 75 -2 20 -4 3 -4 -38z"/>
<path d="M6300 2995 c0 -8 5 -15 10 -15 6 0 10 7 10 15 0 8 -4 15 -10 15 -5 0
-10 -7 -10 -15z"/>
<path d="M5023 2955 c0 -27 2 -38 4 -22 2 15 2 37 0 50 -2 12 -4 0 -4 -28z"/>
<path d="M1897 2895 c-39 -38 -45 -51 -25 -57 9 -3 8 -10 -5 -22 -9 -10 -14
-22 -11 -28 4 -6 14 5 23 24 10 21 21 33 30 30 8 -2 11 0 8 6 -4 5 4 26 18 46
32 47 10 48 -38 1z"/>
<path d="M2820 2896 c0 -8 5 -18 10 -21 6 -3 10 3 10 14 0 12 -4 21 -10 21 -5
0 -10 -6 -10 -14z"/>
<path d="M6277 2873 c-9 -15 -19 -98 -12 -91 5 4 14 3 21 -3 6 -5 24 -7 38 -3
23 5 26 11 26 50 0 37 -3 44 -19 44 -11 0 -26 3 -34 6 -8 3 -17 2 -20 -3z"/>
<path d="M2741 2854 c0 -11 3 -14 6 -6 3 7 2 16 -1 19 -3 4 -6 -2 -5 -13z"/>
<path d="M1940 2833 c0 -5 10 -18 23 -29 l22 -19 -20 25 c-11 14 -21 27 -22
29 -2 2 -3 0 -3 -6z"/>
<path d="M1895 2811 c-3 -6 4 -9 15 -8 11 1 20 5 20 9 0 11 -28 10 -35 -1z"/>
<path d="M2803 2728 c-8 -55 -8 -90 -1 -110 6 -16 8 -42 4 -58 -4 -22 -2 -30
9 -30 8 0 15 -6 15 -12 0 -9 3 -9 9 1 14 22 77 1 73 -25 -2 -17 -1 -17 10 -3
14 18 24 16 86 -14 l44 -21 19 24 c10 14 19 28 19 32 0 6 -220 79 -237 79 -5
0 -10 -8 -11 -18 -11 -56 -19 -18 -21 99 -1 73 -3 133 -5 135 -1 2 -7 -34 -13
-79z"/>
<path d="M4925 2765 c-22 -22 -36 -37 -31 -32 26 20 26 3 0 -25 l-29 -33 32
29 c18 16 31 32 28 34 -7 8 16 33 25 27 11 -7 30 19 22 30 -4 6 -25 -8 -47
-30z"/>
<path d="M1746 2764 c-4 -9 -4 -19 -1 -22 2 -3 7 3 11 12 4 9 4 19 1 22 -2 3
-7 -3 -11 -12z"/>
<path d="M1700 2748 c0 -12 1 -19 3 -17 1 2 9 12 16 22 12 14 11 17 -3 17 -10
0 -16 -8 -16 -22z"/>
<path d="M1973 2743 c-27 -18 -29 -35 -8 -53 13 -11 21 -9 45 8 27 20 30 21
39 5 5 -10 12 -15 15 -12 10 10 -26 50 -40 45 -7 -3 -17 1 -21 8 -7 11 -12 11
-30 -1z"/>
<path d="M2754 2660 c0 -58 1 -81 3 -52 2 28 2 76 0 105 -2 28 -3 5 -3 -53z"/>
<path d="M1828 2573 c-4 -98 -3 -200 2 -228 5 -33 8 30 9 178 0 125 -1 227 -2
227 -2 0 -6 -80 -9 -177z"/>
<path d="M1727 2711 c-4 -17 -3 -21 5 -13 5 5 8 16 6 23 -3 8 -7 3 -11 -10z"/>
<path d="M1754 2705 c-3 -14 -12 -25 -20 -25 -11 0 -10 -4 4 -18 21 -22 32
-10 30 35 -1 39 -5 42 -14 8z"/>
<path d="M2733 2675 c0 -22 2 -30 4 -17 2 12 2 30 0 40 -3 9 -5 -1 -4 -23z"/>
<path d="M7111 2666 c-1 -16 -3 -17 -18 -5 -11 10 -14 10 -9 2 4 -7 0 -23 -8
-35 -9 -12 -13 -31 -10 -42 2 -12 6 -42 8 -69 4 -69 35 -107 86 -107 22 0 40
4 40 9 0 5 9 13 20 16 11 3 20 13 20 22 0 25 -92 193 -106 193 -7 0 -15 8 -17
18 -4 15 -5 15 -6 -2z"/>
<path d="M1630 2655 c-7 -8 -10 -22 -6 -30 7 -18 -64 -164 -80 -165 -23 0 -24
-32 -2 -50 23 -19 23 -18 33 5 6 13 19 32 29 43 10 12 15 25 12 30 -3 5 4 37
16 72 16 50 18 64 7 70 -10 7 -10 11 0 24 8 9 11 16 8 16 -2 0 -10 -7 -17 -15z"/>
<path d="M2698 2626 c-11 -8 -14 -17 -8 -26 11 -19 34 0 28 23 -2 13 -6 13
-20 3z"/>
<path d="M1743 2622 c-15 -10 -37 -70 -53 -145 -19 -94 1 -88 32 9 24 76 41
144 35 144 -1 0 -7 -4 -14 -8z"/>
<path d="M3826 2621 c-3 -5 1 -11 9 -15 8 -3 15 -1 15 4 0 13 -18 22 -24 11z"/>
<path d="M2636 2602 c-2 -4 4 -17 14 -29 14 -18 20 -20 34 -10 14 11 13 14
-14 29 -16 9 -31 14 -34 10z"/>
<path d="M2628 2563 c7 -3 16 -2 19 1 4 3 -2 6 -13 5 -11 0 -14 -3 -6 -6z"/>
<path d="M2720 2554 c0 -16 7 -20 38 -21 l37 0 -30 10 c-16 5 -33 15 -37 21
-5 6 -8 3 -8 -10z"/>
<path d="M2170 2546 c0 -2 8 -10 18 -17 15 -13 16 -12 3 4 -13 16 -21 21 -21
13z"/>
<path d="M6822 2525 c6 -14 14 -23 16 -20 3 3 14 -3 25 -12 17 -16 17 -14 -3
20 -26 43 -57 53 -38 12z"/>
<path d="M2690 2526 c0 -9 7 -16 16 -16 17 0 14 22 -4 28 -7 2 -12 -3 -12 -12z"/>
<path d="M2780 2511 c0 -14 32 -43 39 -35 3 4 0 9 -6 11 -7 3 -13 11 -13 19 0
8 -4 14 -10 14 -5 0 -10 -4 -10 -9z"/>
<path d="M3115 2510 c-3 -5 1 -10 9 -10 9 0 16 -4 16 -9 0 -23 -14 -41 -31
-41 -23 0 -24 -13 -2 -48 36 -58 66 -65 114 -29 53 38 78 110 42 121 -15 4
-131 26 -139 26 -2 0 -6 -4 -9 -10z"/>
<path d="M2227 2485 c32 -45 114 -127 121 -121 3 3 -2 14 -11 24 -10 10 -17
24 -17 30 0 7 -7 12 -15 12 -8 0 -14 6 -12 13 1 6 -6 12 -15 12 -23 0 -35 14
-20 24 10 6 10 11 -3 21 -12 10 -15 10 -15 0 0 -9 -4 -9 -17 1 -12 10 -11 5 4
-16z"/>
<path d="M2840 2486 c0 -8 5 -18 10 -21 6 -3 10 1 10 9 0 8 -4 18 -10 21 -5 3
-10 -1 -10 -9z"/>
<path d="M1770 2469 c0 -11 5 -17 10 -14 6 3 10 13 10 21 0 8 -4 14 -10 14 -5
0 -10 -9 -10 -21z"/>
<path d="M6880 2466 c0 -2 8 -10 18 -17 15 -13 16 -12 3 4 -13 16 -21 21 -21
13z"/>
<path d="M2831 2424 c0 -11 3 -14 6 -6 3 7 2 16 -1 19 -3 4 -6 -2 -5 -13z"/>
<path d="M2398 2406 c12 -6 19 -15 16 -19 -4 -4 0 -7 9 -7 9 0 14 -6 11 -13
-3 -8 7 -18 23 -25 26 -11 26 -11 9 3 -16 12 -17 17 -6 30 11 13 10 14 -3 9
-9 -3 -19 2 -25 13 -6 10 -21 19 -34 20 l-23 2 23 -13z"/>
<path d="M1485 2400 c-3 -5 1 -10 10 -10 9 0 13 5 10 10 -3 6 -8 10 -10 10 -2
0 -7 -4 -10 -10z"/>
<path d="M2739 2348 c0 -39 -3 -48 -9 -33 -8 19 -9 19 -9 -2 -1 -14 5 -23 14
-23 12 0 15 13 15 55 0 30 -2 55 -5 55 -3 0 -5 -24 -6 -52z"/>
<path d="M6934 2378 c-4 -7 -4 -10 1 -6 4 4 15 2 24 -5 14 -11 14 -10 2 6 -16
20 -18 21 -27 5z"/>
<path d="M1657 2365 c-9 -22 8 -26 21 -4 10 15 10 19 -2 19 -8 0 -16 -7 -19
-15z"/>
<path d="M1415 2344 c-20 -17 -26 -28 -17 -31 6 -2 10 -9 6 -14 -10 -17 31 -9
54 11 17 14 22 25 17 40 -8 26 -23 25 -60 -6z"/>
<path d="M1487 2288 c-16 -33 -27 -62 -24 -64 5 -5 47 81 47 96 0 6 5 8 10 5
6 -3 10 -2 10 4 0 30 -18 12 -43 -41z"/>
<path d="M2836 2325 c4 -8 8 -15 10 -15 2 0 4 7 4 15 0 8 -4 15 -10 15 -5 0
-7 -7 -4 -15z"/>
<path d="M6975 2330 c-3 -5 -1 -19 5 -30 13 -25 22 -26 13 -2 -6 15 -3 14 17
-3 l23 -20 -23 33 c-27 36 -26 36 -35 22z"/>
<path d="M2400 2305 c13 -14 26 -25 28 -25 3 0 -5 11 -18 25 -13 14 -26 25
-28 25 -3 0 5 -11 18 -25z"/>
<path d="M2940 2323 c0 -4 7 -26 15 -48 10 -29 14 -34 15 -17 0 13 4 20 10 17
6 -3 10 -2 10 4 0 16 -18 22 -23 9 -3 -7 -6 -3 -6 9 -1 12 -5 25 -11 28 -5 3
-10 3 -10 -2z"/>
<path d="M2345 2310 c-3 -5 3 -10 15 -10 12 0 18 5 15 10 -3 6 -10 10 -15 10
-5 0 -12 -4 -15 -10z"/>
<path d="M2809 2308 c0 -2 -2 -11 -4 -20 -5 -25 11 -23 18 2 3 11 1 20 -4 20
-5 0 -9 -1 -10 -2z"/>
<path d="M2916 2301 c-3 -5 1 -14 9 -21 10 -9 15 -9 15 -1 0 6 -5 11 -11 11
-5 0 -7 5 -4 10 3 6 4 10 1 10 -3 0 -7 -4 -10 -9z"/>
<path d="M2644 2286 c-3 -8 -4 -23 -2 -33 3 -11 6 -6 9 15 6 34 2 42 -7 18z"/>
<path d="M1830 2275 c0 -8 5 -15 10 -15 6 0 10 7 10 15 0 8 -4 15 -10 15 -5 0
-10 -7 -10 -15z"/>
<path d="M2742 2255 c0 -16 2 -22 5 -12 2 9 2 23 0 30 -3 6 -5 -1 -5 -18z"/>
<path d="M1741 2266 c11 -9 69 -15 64 -6 -3 6 -20 10 -37 10 -17 0 -29 -2 -27
-4z"/>
<path d="M3020 2260 c8 -5 20 -10 25 -10 6 0 3 5 -5 10 -8 5 -19 10 -25 10 -5
0 -3 -5 5 -10z"/>
<path d="M1595 2219 c-22 -48 -63 -85 -79 -69 -5 5 -15 10 -20 10 -6 0 -4 -5
4 -10 10 -6 11 -10 3 -10 -7 0 -13 -7 -13 -16 0 -9 5 -12 11 -8 7 4 10 1 7 -6
-5 -15 -30 -27 -27 -13 8 45 -6 34 -24 -19 -18 -51 -34 -78 -65 -106 -23 -22
-42 -45 -42 -53 0 -8 -6 -4 -16 9 -8 12 -12 27 -9 32 3 6 2 10 -4 10 -5 0 -11
-8 -14 -17 -3 -14 -6 -11 -11 10 -5 15 -13 27 -19 27 -14 0 -84 -75 -102 -110
-14 -27 -14 -32 0 -54 21 -31 66 -50 104 -41 l29 6 -14 -58 c-9 -32 -33 -114
-55 -182 -29 -93 -39 -140 -39 -191 0 -77 -6 -100 -26 -100 -8 0 -14 -4 -14
-10 0 -5 -14 -31 -30 -57 -17 -26 -30 -55 -30 -65 0 -10 -4 -18 -9 -18 -5 0
-12 -13 -16 -30 -4 -16 -11 -32 -16 -35 -19 -12 -9 -55 16 -71 38 -25 92 -6
144 51 39 43 41 47 41 109 0 35 3 71 6 79 4 10 -4 20 -21 29 l-26 14 61 92
c34 51 66 92 71 92 15 0 43 74 30 78 -19 6 -12 22 9 22 11 0 20 5 20 10 0 6
-4 10 -10 10 -17 0 -11 18 8 25 25 7 103 205 81 205 -18 0 -9 29 11 35 21 7
27 21 10 27 -6 2 -8 17 -4 36 5 26 9 30 20 21 11 -9 14 -8 14 6 0 20 -29 17
-41 -5 -4 -8 -44 -109 -88 -225 -106 -278 -106 -279 -154 -344 l-42 -56 -3 59
c-4 68 4 99 18 76 7 -11 11 -8 19 13 14 37 14 40 -4 33 -27 -10 -15 14 13 26
21 9 23 12 10 15 -10 3 -18 10 -18 16 1 33 28 97 48 113 12 11 29 41 36 69 7
28 16 60 20 73 6 17 3 22 -9 22 -12 0 -15 6 -10 23 33 115 63 159 111 161 21
1 32 10 47 39 10 20 25 37 33 37 17 0 19 17 3 22 -9 3 -9 10 0 26 15 27 31 29
31 2 0 -11 5 -20 10 -20 6 0 10 11 10 24 0 13 8 27 18 31 16 6 16 7 0 19 -20
15 -5 38 18 29 8 -3 14 0 14 6 0 6 -5 11 -11 11 -7 0 -9 10 -5 25 9 37 2 30
-19 -16z m-114 -193 c-10 -24 -31 -37 -31 -18 0 10 33 52 38 48 1 -2 -2 -15
-7 -30z"/>
<path d="M1700 2250 c0 -5 5 -10 11 -10 5 0 7 5 4 10 -3 6 -8 10 -11 10 -2 0
-4 -4 -4 -10z"/>
<path d="M2409 2239 c-13 -10 -19 -19 -12 -19 6 0 16 -14 22 -30 10 -30 11
-31 36 -14 25 17 33 34 15 34 -5 0 -10 5 -10 11 0 6 -6 16 -13 24 -11 11 -18
10 -38 -6z"/>
<path d="M2780 2251 c0 -12 21 -19 43 -13 28 7 20 22 -13 22 -16 0 -30 -4 -30
-9z"/>
<path d="M1487 2230 c-11 -16 -13 -26 -6 -29 16 -5 31 14 27 35 -3 17 -5 16
-21 -6z"/>
<path d="M1743 2243 c4 -3 2 -12 -5 -20 -8 -11 -7 -12 5 -7 22 8 30 34 10 34
-9 0 -13 -3 -10 -7z"/>
<path d="M1900 2231 c0 -5 9 -7 20 -4 11 3 20 7 20 9 0 2 -9 4 -20 4 -11 0
-20 -4 -20 -9z"/>
<path d="M1957 2203 c-15 -10 -25 -22 -23 -28 3 -5 13 -34 22 -62 19 -56 29
-65 39 -34 3 11 21 33 40 50 20 17 35 41 37 57 3 27 1 28 -42 31 -30 2 -54 -3
-73 -14z"/>
<path d="M7050 2216 c0 -11 80 -136 87 -136 3 0 3 10 0 23 -6 21 -6 21 8 3 8
-11 15 -15 15 -9 0 18 -51 74 -61 68 -5 -4 -18 9 -29 27 -11 18 -20 29 -20 24z"/>
<path d="M1680 2184 c-16 -10 -18 -13 -5 -8 11 4 28 7 38 8 9 0 17 4 17 8 0
12 -23 9 -50 -8z"/>
<path d="M1756 2183 c-4 -9 -2 -21 4 -27 7 -7 10 -2 10 17 0 31 -5 34 -14 10z"/>
<path d="M2937 2187 c-3 -8 4 -28 15 -46 16 -24 23 -29 34 -20 11 9 9 17 -9
45 -24 37 -32 41 -40 21z"/>
<path d="M1460 2185 c0 -5 5 -17 10 -25 5 -8 10 -10 10 -5 0 6 -5 17 -10 25
-5 8 -10 11 -10 5z"/>
<path d="M1857 2156 c-9 -7 -35 -16 -57 -20 -31 -5 -40 -11 -40 -26 0 -12 -7
-20 -17 -20 -11 0 -14 -3 -7 -10 10 -10 84 7 95 23 9 12 39 -21 39 -43 0 -15
25 -29 53 -30 12 0 8 33 -12 85 -21 55 -28 60 -54 41z"/>
<path d="M2550 2120 c6 -11 13 -20 16 -20 2 0 0 9 -6 20 -6 11 -13 20 -16 20
-2 0 0 -9 6 -20z"/>
<path d="M1647 2073 l-16 -48 -1 35 -2 35 -9 -40 c-6 -26 -6 -41 0 -43 6 -2 8
-17 4 -35 -10 -53 12 -18 30 48 8 33 19 68 22 78 4 9 3 17 -2 17 -6 0 -17 -21
-26 -47z"/>
<path d="M2590 2080 c0 -5 10 -20 23 -32 12 -13 55 -61 96 -108 75 -86 118
-130 127 -130 9 0 -60 91 -128 169 -37 42 -75 84 -83 94 -16 19 -35 23 -35 7z"/>
<path d="M1350 2051 c0 -5 5 -13 10 -16 6 -3 10 -2 10 4 0 5 -4 13 -10 16 -5
3 -10 2 -10 -4z"/>
<path d="M1780 2039 c0 -11 6 -19 13 -19 9 0 8 -3 -2 -9 -8 -5 -9 -10 -3 -12
13 -5 25 -129 12 -129 -5 0 -7 -7 -4 -15 5 -11 2 -13 -10 -9 -9 3 -16 1 -16
-5 0 -10 14 -15 33 -12 5 1 22 3 38 5 37 4 47 13 25 22 -9 3 -16 12 -16 20 0
8 -5 14 -10 14 -5 0 -9 3 -8 8 1 4 -1 25 -5 47 -3 22 -2 54 2 70 5 17 10 24
10 18 1 -20 21 -15 21 5 0 13 -9 18 -40 18 -33 1 -40 -2 -40 -17z"/>
<path d="M1736 2013 c-11 -11 -6 -23 9 -23 8 0 15 4 15 9 0 13 -16 22 -24 14z"/>
<path d="M3121 1989 c-15 -43 -14 -68 4 -103 8 -15 15 -39 15 -52 0 -47 68
-68 127 -39 36 18 51 45 25 46 -16 0 -16 1 0 7 15 6 14 12 -12 50 -81 121
-137 153 -159 91z"/>
<path d="M1490 1996 c0 -2 7 -7 16 -10 8 -3 12 -2 9 4 -6 10 -25 14 -25 6z"/>
<path d="M7097 1953 c-3 -5 -6 -39 -8 -78 -4 -68 -3 -70 25 -83 21 -11 34 -12
52 -3 22 10 24 16 24 87 l0 76 -29 -7 c-17 -3 -32 -2 -36 4 -7 13 -22 14 -28
4z"/>
<path d="M1961 1923 c-1 -18 4 -33 9 -33 12 0 12 17 0 45 -7 17 -9 15 -9 -12z"/>
<path d="M1380 1930 c0 -5 5 -10 10 -10 6 0 10 5 10 10 0 6 -4 10 -10 10 -5 0
-10 -4 -10 -10z"/>
<path d="M1642 1815 c0 -16 2 -22 5 -12 2 9 2 23 0 30 -3 6 -5 -1 -5 -18z"/>
<path d="M1720 1817 c0 -13 22 -51 50 -86 33 -41 56 -83 69 -126 11 -35 27
-77 35 -93 23 -45 93 -112 171 -164 92 -62 123 -88 108 -88 -26 0 -12 -27 26
-48 21 -12 45 -29 52 -38 13 -16 11 -16 -21 0 -19 9 -44 22 -55 28 -67 38
-328 169 -320 161 6 -6 51 -32 100 -58 50 -27 115 -62 145 -79 30 -17 90 -47
132 -66 43 -19 80 -43 83 -52 4 -10 15 -18 26 -18 10 0 19 -3 18 -7 -4 -27 18
-54 59 -71 120 -50 176 -53 270 -12 43 18 52 27 52 47 0 17 -4 23 -14 20 -10
-4 -12 0 -9 14 8 30 -38 87 -154 190 -109 97 -161 158 -202 242 -36 72 -112
137 -226 193 -55 28 -120 62 -145 76 -42 24 -48 25 -93 13 -26 -6 -49 -14 -52
-17 -2 -2 7 -31 20 -64 14 -32 25 -68 25 -79 0 -11 -11 5 -24 36 -29 72 -97
169 -118 169 -4 0 -8 -11 -8 -23z m215 -316 c16 -18 67 -58 114 -88 58 -37
119 -89 188 -161 56 -58 100 -108 97 -112 -3 -3 -15 6 -26 20 -79 100 -157
174 -235 225 -48 32 -101 70 -117 84 -35 32 -86 109 -86 130 0 9 9 -2 19 -24
10 -22 31 -55 46 -74z m446 -388 c13 -16 12 -17 -3 -4 -17 13 -22 21 -14 21 2
0 10 -8 17 -17z m299 -59 c0 -8 -67 -34 -87 -34 -10 1 5 9 32 19 28 10 51 19
53 20 1 0 2 -1 2 -5z"/>
<path d="M2871 1755 c-13 -14 -29 -25 -36 -25 -22 0 -25 -14 -11 -42 8 -15 17
-44 21 -67 9 -52 38 -71 109 -71 67 0 106 16 106 43 0 24 -39 78 -93 126 -22
20 -46 42 -53 49 -16 16 -15 16 -43 -13z"/>
<path d="M1745 1661 c19 -9 19 -10 -3 -10 -23 -1 -24 -3 -20 -73 3 -69 2 -72
-22 -79 -15 -4 -18 -7 -8 -8 9 -1 37 10 61 22 36 19 41 26 29 34 -11 6 -16 26
-16 63 -1 47 -4 55 -21 57 l-20 3 20 -9z"/>
<path d="M1647 1476 c-4 -10 -1 -13 9 -9 15 6 19 23 5 23 -5 0 -11 -7 -14 -14z"/>
<path d="M1710 1445 c-45 -13 -45 -13 -15 -19 17 -4 41 -12 55 -17 l25 -9 -22
19 -22 18 22 11 c28 14 14 13 -43 -3z"/>
<path d="M6996 1244 c-3 -9 -6 -62 -6 -119 0 -81 3 -107 16 -119 33 -33 52
-10 56 67 l3 56 54 -64 c31 -38 62 -65 72 -65 18 0 19 10 19 131 l0 130 -27
-3 c-27 -3 -28 -6 -31 -66 l-3 -62 -56 65 c-55 64 -85 80 -97 49z"/>
<path d="M7237 1254 c-13 -13 -7 -42 10 -48 21 -8 36 6 31 30 -3 19 -29 30
-41 18z"/>
<path d="M6984 969 c-14 -23 17 -30 127 -27 99 3 114 5 117 21 3 15 -8 17
-117 17 -75 0 -122 -4 -127 -11z"/>
</g>
</svg>
